<svg width="160" height="55" viewBox="0 0 160 55" fill="none" xmlns="http://www.w3.org/2000/svg">
<rect width="160" height="54.6155" fill="black" fill-opacity="0"/>
<path d="M35.3041 20.8705V21.5317H30.2176V13.9605H35.2081V14.6217H30.9641V17.3516H34.6643V17.9807H30.9641V20.8705H35.3041Z" fill="black"/>
<path d="M40.9849 15.3788C40.7716 15.1371 40.4872 14.9416 40.1318 14.7923C39.7763 14.643 39.3711 14.5684 38.9161 14.5684C38.2479 14.5684 37.7609 14.6963 37.4552 14.9523C37.1495 15.2011 36.9967 15.5423 36.9967 15.976C36.9967 16.2034 37.0358 16.3918 37.114 16.5411C37.1993 16.6833 37.3273 16.8077 37.4979 16.9143C37.6685 17.021 37.8853 17.1134 38.1484 17.1916C38.4185 17.2698 38.7349 17.348 39.0974 17.4262C39.5026 17.5115 39.8652 17.6075 40.1851 17.7141C40.5121 17.8207 40.7894 17.9558 41.0168 18.1193C41.2443 18.2757 41.4185 18.4677 41.5394 18.6952C41.6602 18.9226 41.7206 19.207 41.7206 19.5482C41.7206 19.8966 41.6531 20.1987 41.518 20.4546C41.383 20.7106 41.1946 20.9238 40.9529 21.0945C40.7112 21.2651 40.4232 21.393 40.0891 21.4783C39.755 21.5565 39.3889 21.5956 38.9908 21.5956C37.8178 21.5956 36.8048 21.2295 35.9517 20.4973L36.3249 19.8895C36.46 20.0317 36.6199 20.1667 36.8048 20.2947C36.9967 20.4226 37.2064 20.5364 37.4339 20.6359C37.6685 20.7283 37.9173 20.803 38.1803 20.8599C38.4434 20.9096 38.7206 20.9345 39.0121 20.9345C39.6164 20.9345 40.0856 20.8279 40.4197 20.6146C40.7609 20.3942 40.9315 20.0636 40.9315 19.6229C40.9315 19.3883 40.8818 19.1928 40.7823 19.0364C40.6898 18.8729 40.5477 18.7343 40.3557 18.6205C40.1638 18.4997 39.9256 18.3966 39.6413 18.3113C39.3569 18.226 39.0263 18.1407 38.6495 18.0553C38.2514 17.9629 37.9031 17.867 37.6045 17.7674C37.3059 17.6679 37.0536 17.5435 36.8474 17.3942C36.6412 17.2449 36.4848 17.0672 36.3782 16.861C36.2787 16.6478 36.2289 16.3883 36.2289 16.0826C36.2289 15.7342 36.2929 15.425 36.4209 15.1549C36.5559 14.8776 36.7443 14.6501 36.986 14.4724C37.2277 14.2876 37.5121 14.1489 37.8391 14.0565C38.1661 13.957 38.5287 13.9072 38.9268 13.9072C39.4315 13.9072 39.8794 13.9854 40.2704 14.1418C40.6685 14.2911 41.0275 14.5044 41.3474 14.7816L40.9849 15.3788Z" fill="black"/>
<path d="M48.3591 14.6217H45.6612V21.5317H44.9148V14.6217H42.2169V13.9605H48.3591V14.6217Z" fill="black"/>
<path d="M52.5643 20.9132C53.0406 20.9132 53.4351 20.8243 53.7479 20.6466C54.0678 20.4617 54.3202 20.2236 54.5051 19.9321C54.697 19.6335 54.8285 19.2959 54.8996 18.9191C54.9778 18.5423 55.0169 18.162 55.0169 17.7781V13.9605H55.7634V17.7781C55.7634 18.2899 55.7065 18.7769 55.5927 19.239C55.479 19.694 55.2942 20.0956 55.0382 20.444C54.7894 20.7923 54.4624 21.0696 54.0572 21.2757C53.652 21.4819 53.1579 21.585 52.575 21.585C51.9778 21.585 51.4731 21.4783 51.0607 21.2651C50.6555 21.0447 50.3285 20.7568 50.0797 20.4013C49.8309 20.0459 49.6531 19.6407 49.5465 19.1857C49.4399 18.7307 49.3866 18.2615 49.3866 17.7781V13.9605H50.1223V17.7781C50.1223 18.1762 50.1614 18.5636 50.2396 18.9404C50.3178 19.3172 50.4494 19.6513 50.6342 19.9428C50.8261 20.2343 51.0785 20.4689 51.3913 20.6466C51.7041 20.8243 52.0951 20.9132 52.5643 20.9132Z" fill="black"/>
<path d="M57.5429 21.5317V13.9605H60.1128C60.7171 13.9605 61.2432 14.0601 61.691 14.2591C62.146 14.4582 62.5228 14.7283 62.8214 15.0696C63.127 15.4108 63.3545 15.8124 63.5038 16.2745C63.6602 16.7295 63.7384 17.2165 63.7384 17.7354C63.7384 18.3113 63.6531 18.8338 63.4825 19.303C63.3119 19.7651 63.0666 20.1632 62.7467 20.4973C62.4339 20.8243 62.0536 21.0802 61.6057 21.2651C61.165 21.4428 60.6673 21.5317 60.1128 21.5317H57.5429ZM62.992 17.7354C62.992 17.2805 62.928 16.8646 62.8 16.4878C62.6721 16.1039 62.4837 15.7733 62.2349 15.4961C61.9932 15.2188 61.6946 15.0056 61.3391 14.8563C60.9837 14.6999 60.5749 14.6217 60.1128 14.6217H58.2894V20.8705H60.1128C60.582 20.8705 60.9943 20.7923 61.3498 20.6359C61.7124 20.4724 62.0145 20.252 62.2562 19.9748C62.4979 19.6904 62.6792 19.3599 62.8 18.9831C62.928 18.5992 62.992 18.1833 62.992 17.7354Z" fill="black"/>
<path d="M65.1657 21.5317V13.9605H65.9121V21.5317H65.1657Z" fill="black"/>
<path d="M70.8605 21.585C70.3344 21.585 69.851 21.4783 69.4103 21.2651C68.9766 21.0447 68.6034 20.7568 68.2906 20.4013C67.9778 20.0388 67.7361 19.6264 67.5655 19.1644C67.3949 18.7023 67.3095 18.2295 67.3095 17.7461C67.3095 17.2414 67.3984 16.7579 67.5761 16.2959C67.761 15.8338 68.0133 15.425 68.3332 15.0696C68.6531 14.7141 69.0299 14.4333 69.4636 14.2271C69.8972 14.0139 70.3664 13.9072 70.8712 13.9072C71.3972 13.9072 71.8771 14.021 72.3107 14.2485C72.7515 14.4688 73.1247 14.7603 73.4304 15.1229C73.7432 15.4854 73.9849 15.8978 74.1555 16.3598C74.3261 16.8148 74.4115 17.2805 74.4115 17.7568C74.4115 18.2615 74.319 18.7449 74.1342 19.207C73.9565 19.6691 73.7077 20.0779 73.3878 20.4333C73.075 20.7817 72.7017 21.0625 72.2681 21.2757C71.8344 21.4819 71.3652 21.585 70.8605 21.585ZM68.056 17.7461C68.056 18.1584 68.1235 18.5565 68.2586 18.9404C68.3937 19.3172 68.5856 19.6549 68.8344 19.9535C69.0832 20.2449 69.3783 20.4795 69.7195 20.6572C70.0607 20.8279 70.4411 20.9132 70.8605 20.9132C71.287 20.9132 71.6745 20.8208 72.0228 20.6359C72.3712 20.4511 72.6662 20.2094 72.9079 19.9108C73.1496 19.6122 73.3344 19.2745 73.4624 18.8978C73.5975 18.521 73.665 18.1371 73.665 17.7461C73.665 17.3338 73.5939 16.9392 73.4517 16.5625C73.3167 16.1786 73.1247 15.8409 72.8759 15.5494C72.6271 15.2579 72.3321 15.0269 71.9908 14.8563C71.6496 14.6786 71.2728 14.5897 70.8605 14.5897C70.434 14.5897 70.0465 14.6821 69.6982 14.8669C69.3498 15.0447 69.0548 15.2828 68.8131 15.5814C68.5714 15.88 68.383 16.2177 68.2479 16.5944C68.12 16.9712 68.056 17.3551 68.056 17.7461Z" fill="black"/>
<path d="M135.965 13.8302V10.8945L134.66 13.1655H134.454L133.15 10.8945V13.8302H132.797V10.255H133.16L134.555 12.7022L135.96 10.255H136.317V13.8302H135.965Z" fill="black"/>
<path d="M138.663 13.5382C138.888 13.5382 139.075 13.4962 139.222 13.4123C139.373 13.325 139.493 13.2125 139.58 13.0749C139.671 12.9339 139.733 12.7744 139.766 12.5965C139.803 12.4186 139.822 12.239 139.822 12.0577V10.255H140.174V12.0577C140.174 12.2994 140.147 12.5294 140.094 12.7476C140.04 12.9624 139.953 13.1521 139.832 13.3166C139.714 13.4811 139.56 13.612 139.368 13.7094C139.177 13.8067 138.944 13.8554 138.669 13.8554C138.387 13.8554 138.148 13.805 137.953 13.7043C137.762 13.6003 137.608 13.4643 137.49 13.2964C137.373 13.1286 137.289 12.9372 137.238 12.7224C137.188 12.5075 137.163 12.286 137.163 12.0577V10.255H137.51V12.0577C137.51 12.2457 137.529 12.4287 137.566 12.6066C137.603 12.7845 137.665 12.9423 137.752 13.0799C137.843 13.2176 137.962 13.3283 138.11 13.4123C138.257 13.4962 138.442 13.5382 138.663 13.5382Z" fill="black"/>
<path d="M141.367 10.9096V13.8302H141.014V10.255H141.286L143.653 13.231V10.26H144.006V13.8302H143.698L141.367 10.9096ZM142.837 9.67588C142.76 9.67588 142.693 9.66581 142.636 9.64567C142.582 9.62552 142.53 9.6037 142.48 9.5802C142.433 9.55335 142.386 9.52985 142.339 9.50971C142.295 9.48621 142.247 9.47446 142.193 9.47446C142.136 9.47446 142.09 9.48621 142.057 9.50971C142.027 9.53321 142.001 9.56006 141.981 9.59028C141.965 9.61713 141.953 9.64399 141.946 9.67084C141.943 9.69434 141.941 9.70945 141.941 9.71616H141.73C141.73 9.69938 141.735 9.66581 141.745 9.61545C141.758 9.56174 141.782 9.50803 141.815 9.45432C141.849 9.4006 141.896 9.3536 141.956 9.31332C142.017 9.26968 142.094 9.24786 142.188 9.24786C142.258 9.24786 142.319 9.25961 142.369 9.28311C142.423 9.30325 142.473 9.32675 142.52 9.3536C142.567 9.38046 142.614 9.40564 142.661 9.42914C142.711 9.44928 142.769 9.45935 142.832 9.45935C142.896 9.45935 142.946 9.4476 142.983 9.4241C143.024 9.4006 143.054 9.37375 143.074 9.34353C143.094 9.31332 143.106 9.28646 143.109 9.26296C143.116 9.23611 143.119 9.21932 143.119 9.21261H143.331C143.331 9.22939 143.324 9.26296 143.311 9.31332C143.297 9.36368 143.272 9.41571 143.235 9.46942C143.202 9.52313 143.151 9.57181 143.084 9.61545C143.02 9.65574 142.938 9.67588 142.837 9.67588Z" fill="black"/>
<path d="M144.904 13.8302V10.255H145.257V13.8302H144.904Z" fill="black"/>
<path d="M145.861 13.5533L148.293 10.5672H145.902V10.255H148.701V10.5319L146.299 13.518H148.696V13.8302H145.861V13.5533Z" fill="black"/>
<path d="M134.237 19.1872C133.989 19.1872 133.761 19.1368 133.553 19.0361C133.348 18.932 133.172 18.7961 133.024 18.6282C132.876 18.457 132.762 18.2623 132.681 18.0441C132.601 17.8259 132.561 17.6026 132.561 17.3744C132.561 17.136 132.603 16.9077 132.686 16.6895C132.774 16.4713 132.893 16.2783 133.044 16.1104C133.195 15.9426 133.373 15.81 133.578 15.7126C133.783 15.6119 134.004 15.5616 134.242 15.5616C134.491 15.5616 134.718 15.6153 134.922 15.7227C135.13 15.8268 135.307 15.9644 135.451 16.1356C135.599 16.3068 135.713 16.5015 135.793 16.7197C135.874 16.9346 135.914 17.1545 135.914 17.3794C135.914 17.6177 135.871 17.846 135.783 18.0642C135.699 18.2824 135.582 18.4755 135.431 18.6433C135.283 18.8078 135.107 18.9404 134.902 19.0411C134.697 19.1385 134.476 19.1872 134.237 19.1872ZM132.913 17.3744C132.913 17.5691 132.945 17.7571 133.009 17.9383C133.073 18.1163 133.163 18.2757 133.281 18.4167C133.398 18.5544 133.538 18.6651 133.699 18.7491C133.86 18.8296 134.039 18.8699 134.237 18.8699C134.439 18.8699 134.622 18.8263 134.786 18.739C134.951 18.6517 135.09 18.5376 135.204 18.3966C135.318 18.2556 135.406 18.0961 135.466 17.9182C135.53 17.7403 135.562 17.559 135.562 17.3744C135.562 17.1796 135.528 16.9933 135.461 16.8154C135.397 16.6341 135.307 16.4747 135.189 16.337C135.072 16.1994 134.932 16.0903 134.771 16.0097C134.61 15.9258 134.432 15.8838 134.237 15.8838C134.036 15.8838 133.853 15.9275 133.689 16.0148C133.524 16.0987 133.385 16.2111 133.271 16.3521C133.156 16.4931 133.068 16.6526 133.004 16.8305C132.943 17.0084 132.913 17.1897 132.913 17.3744Z" fill="black"/>
<path d="M136.579 19.162V15.5867H136.931V18.8498H138.996V19.162H136.579Z" fill="black"/>
<path d="M140.622 15.5867H140.92L142.405 19.162H142.032L141.569 18.0441H139.963L139.505 19.162H139.127L140.622 15.5867ZM141.489 17.7671L140.768 15.9997L140.038 17.7671H141.489Z" fill="black"/>
<path d="M142.52 15.5867L143.688 17.5103L144.866 15.5867H145.249L143.864 17.8326V19.162H143.512V17.8225L142.132 15.5867H142.52Z" fill="black"/>
<path d="M146.474 15.5867H146.771L148.257 19.162H147.884L147.421 18.0441H145.815L145.356 19.162H144.979L146.474 15.5867ZM147.34 17.7671L146.62 15.9997L145.89 17.7671H147.34Z" fill="black"/>
<path d="M135.965 24.4937V21.558L134.66 23.8291H134.454L133.15 21.558V24.4937H132.797V20.9185H133.16L134.555 23.3658L135.96 20.9185H136.317V24.4937H135.965Z" fill="black"/>
<path d="M139.615 24.1815V24.4937H137.213V20.9185H139.57V21.2307H137.566V22.5198H139.313V22.8169H137.566V24.1815H139.615Z" fill="black"/>
<path d="M140.282 24.4937V20.9185H140.634V24.1815H142.699V24.4937H140.282Z" fill="black"/>
<path d="M144.497 20.4301L144.27 20.3444L144.567 19.8761H144.93L144.497 20.4301ZM145.62 24.1815V24.4937H143.218V20.9185H145.574V21.2307H143.57V22.5198H145.317V22.8169H143.57V24.1815H145.62Z" fill="black"/>
<path d="M146.639 21.5731V24.4937H146.286V20.9185H146.558L148.925 23.8945V20.9235H149.277V24.4937H148.97L146.639 21.5731Z" fill="black"/>
<path d="M150.176 24.4937V20.9185H151.389C151.675 20.9185 151.923 20.9655 152.135 21.0595C152.35 21.1535 152.527 21.2811 152.668 21.4422C152.813 21.6033 152.92 21.793 152.991 22.0112C153.065 22.2261 153.102 22.456 153.102 22.7011C153.102 22.973 153.061 23.2198 152.981 23.4413C152.9 23.6595 152.784 23.8475 152.633 24.0053C152.485 24.1597 152.306 24.2806 152.094 24.3679C151.886 24.4518 151.651 24.4937 151.389 24.4937H150.176ZM152.749 22.7011C152.749 22.4862 152.719 22.2899 152.658 22.1119C152.598 21.9306 152.509 21.7745 152.391 21.6436C152.277 21.5127 152.136 21.412 151.969 21.3415C151.801 21.2676 151.608 21.2307 151.389 21.2307H150.528V24.1815H151.389C151.611 24.1815 151.806 24.1446 151.974 24.0708C152.145 23.9935 152.287 23.8895 152.402 23.7586C152.516 23.6243 152.601 23.4682 152.658 23.2902C152.719 23.109 152.749 22.9126 152.749 22.7011Z" fill="black"/>
<path d="M156.177 24.1815V24.4937H153.775V20.9185H156.132V21.2307H154.128V22.5198H155.875V22.8169H154.128V24.1815H156.177Z" fill="black"/>
<path d="M156.552 24.2168L158.984 21.2307H156.592V20.9185H159.392V21.1955L156.99 24.1815H159.387V24.4937H156.552V24.2168Z" fill="black"/>
<path d="M132.561 28.0127C132.561 27.7979 132.598 27.5847 132.671 27.3732C132.749 27.1583 132.859 26.967 133.004 26.7991C133.148 26.6313 133.326 26.4953 133.538 26.3913C133.749 26.2838 133.989 26.2301 134.258 26.2301C134.577 26.2301 134.848 26.3023 135.073 26.4467C135.302 26.591 135.469 26.779 135.577 27.0106L135.3 27.1818C135.243 27.0644 135.172 26.9653 135.088 26.8847C135.008 26.8042 134.921 26.7387 134.827 26.6884C134.733 26.638 134.635 26.6028 134.535 26.5826C134.434 26.5591 134.335 26.5474 134.237 26.5474C134.023 26.5474 133.833 26.591 133.668 26.6783C133.504 26.7656 133.365 26.8797 133.25 27.0207C133.14 27.1617 133.056 27.3212 132.999 27.4991C132.942 27.6737 132.913 27.8516 132.913 28.0329C132.913 28.2309 132.947 28.4206 133.014 28.6019C133.084 28.7832 133.178 28.9443 133.296 29.0853C133.417 29.2229 133.558 29.3337 133.719 29.4176C133.883 29.4982 134.061 29.5385 134.253 29.5385C134.353 29.5385 134.456 29.5267 134.56 29.5032C134.667 29.4764 134.77 29.4361 134.867 29.3824C134.968 29.3253 135.06 29.2565 135.144 29.1759C135.228 29.092 135.298 28.9913 135.355 28.8738L135.647 29.0249C135.59 29.1591 135.51 29.2783 135.406 29.3824C135.302 29.4831 135.186 29.5687 135.058 29.6392C134.931 29.7097 134.795 29.7634 134.65 29.8003C134.509 29.8373 134.37 29.8557 134.232 29.8557C133.987 29.8557 133.762 29.802 133.558 29.6946C133.353 29.5872 133.177 29.4478 133.029 29.2766C132.881 29.1021 132.765 28.9057 132.681 28.6875C132.601 28.4659 132.561 28.241 132.561 28.0127Z" fill="black"/>
<path d="M137.308 26.2503H137.605L139.091 29.8255H138.718L138.255 28.7076H136.648L136.19 29.8255H135.812L137.308 26.2503ZM138.174 28.4307L137.454 26.6632L136.724 28.4307H138.174Z" fill="black"/>
<path d="M141.639 26.92C141.538 26.8059 141.404 26.7135 141.236 26.643C141.068 26.5725 140.877 26.5373 140.662 26.5373C140.346 26.5373 140.116 26.5977 139.972 26.7186C139.828 26.8361 139.756 26.9972 139.756 27.202C139.756 27.3094 139.774 27.3984 139.811 27.4689C139.851 27.536 139.912 27.5948 139.992 27.6451C140.073 27.6955 140.175 27.7391 140.299 27.776C140.427 27.813 140.576 27.8499 140.748 27.8868C140.939 27.9271 141.11 27.9724 141.261 28.0228C141.416 28.0731 141.546 28.1369 141.654 28.2141C141.761 28.288 141.844 28.3786 141.901 28.4861C141.958 28.5935 141.986 28.7278 141.986 28.8889C141.986 29.0534 141.954 29.1961 141.891 29.3169C141.827 29.4378 141.738 29.5385 141.624 29.6191C141.51 29.6996 141.374 29.76 141.216 29.8003C141.058 29.8373 140.885 29.8557 140.697 29.8557C140.143 29.8557 139.665 29.6828 139.262 29.3371L139.438 29.05C139.502 29.1172 139.578 29.181 139.665 29.2414C139.756 29.3018 139.855 29.3555 139.962 29.4025C140.073 29.4462 140.19 29.4814 140.314 29.5083C140.439 29.5318 140.57 29.5435 140.707 29.5435C140.993 29.5435 141.214 29.4932 141.372 29.3925C141.533 29.2884 141.614 29.1323 141.614 28.9241C141.614 28.8134 141.59 28.721 141.543 28.6472C141.499 28.57 141.432 28.5045 141.342 28.4508C141.251 28.3937 141.139 28.3451 141.004 28.3048C140.87 28.2645 140.714 28.2242 140.536 28.1839C140.348 28.1403 140.184 28.095 140.043 28.048C139.902 28.001 139.782 27.9422 139.685 27.8717C139.588 27.8012 139.514 27.7173 139.463 27.6199C139.416 27.5192 139.393 27.3967 139.393 27.2523C139.393 27.0878 139.423 26.9418 139.484 26.8142C139.547 26.6833 139.636 26.5759 139.75 26.492C139.865 26.4047 139.999 26.3392 140.153 26.2956C140.308 26.2486 140.479 26.2251 140.667 26.2251C140.905 26.2251 141.117 26.262 141.301 26.3359C141.489 26.4064 141.659 26.5071 141.81 26.638L141.639 26.92Z" fill="black"/>
<path d="M145.121 26.5625H143.847V29.8255H143.495V26.5625H142.221V26.2503H145.121V26.5625Z" fill="black"/>
<path d="M145.657 29.8255V26.2503H147.167C147.322 26.2503 147.463 26.2838 147.59 26.351C147.721 26.4148 147.834 26.5004 147.928 26.6078C148.022 26.7119 148.094 26.831 148.144 26.9653C148.198 27.0996 148.225 27.2356 148.225 27.3732C148.225 27.5041 148.205 27.63 148.164 27.7509C148.127 27.8684 148.074 27.9758 148.003 28.0731C147.936 28.1671 147.854 28.2477 147.756 28.3148C147.659 28.3786 147.55 28.4223 147.429 28.4458L148.305 29.8255H147.908L147.067 28.5062H146.009V29.8255H145.657ZM146.009 28.194H147.177C147.281 28.194 147.375 28.1722 147.459 28.1285C147.547 28.0815 147.621 28.0194 147.681 27.9422C147.741 27.865 147.788 27.7777 147.822 27.6804C147.855 27.583 147.872 27.4806 147.872 27.3732C147.872 27.2658 147.852 27.1634 147.812 27.066C147.775 26.9653 147.723 26.878 147.656 26.8042C147.592 26.7303 147.515 26.6716 147.424 26.6279C147.337 26.5843 147.245 26.5625 147.147 26.5625H146.009V28.194Z" fill="black"/>
<path d="M150.387 29.8507C150.138 29.8507 149.91 29.8003 149.702 29.6996C149.497 29.5956 149.321 29.4596 149.173 29.2917C149.025 29.1205 148.911 28.9258 148.831 28.7076C148.75 28.4894 148.71 28.2662 148.71 28.0379C148.71 27.7995 148.752 27.5713 148.836 27.3531C148.923 27.1348 149.042 26.9418 149.193 26.774C149.344 26.6061 149.522 26.4735 149.727 26.3762C149.932 26.2754 150.153 26.2251 150.392 26.2251C150.64 26.2251 150.867 26.2788 151.071 26.3862C151.28 26.4903 151.456 26.6279 151.6 26.7991C151.748 26.9704 151.862 27.1651 151.943 27.3833C152.023 27.5981 152.063 27.818 152.063 28.0429C152.063 28.2813 152.02 28.5096 151.933 28.7278C151.849 28.946 151.731 29.139 151.58 29.3068C151.432 29.4713 151.256 29.6039 151.051 29.7047C150.847 29.802 150.625 29.8507 150.387 29.8507ZM149.062 28.0379C149.062 28.2326 149.094 28.4206 149.158 28.6019C149.222 28.7798 149.312 28.9393 149.43 29.0802C149.547 29.2179 149.687 29.3287 149.848 29.4126C150.009 29.4932 150.189 29.5334 150.387 29.5334C150.588 29.5334 150.771 29.4898 150.936 29.4025C151.1 29.3152 151.239 29.2011 151.353 29.0601C151.468 28.9191 151.555 28.7597 151.615 28.5817C151.679 28.4038 151.711 28.2225 151.711 28.0379C151.711 27.8432 151.677 27.6569 151.61 27.4789C151.546 27.2977 151.456 27.1382 151.338 27.0006C151.221 26.8629 151.082 26.7538 150.92 26.6733C150.759 26.5893 150.581 26.5474 150.387 26.5474C150.185 26.5474 150.002 26.591 149.838 26.6783C149.673 26.7622 149.534 26.8747 149.42 27.0157C149.306 27.1567 149.217 27.3161 149.153 27.4941C149.092 27.672 149.062 27.8533 149.062 28.0379Z" fill="black"/>
<path d="M134.237 35.1825C133.989 35.1825 133.761 35.1321 133.553 35.0314C133.348 34.9273 133.172 34.7914 133.024 34.6235C132.876 34.4523 132.762 34.2576 132.681 34.0394C132.601 33.8212 132.561 33.5979 132.561 33.3697C132.561 33.1313 132.603 32.903 132.686 32.6848C132.774 32.4666 132.893 32.2736 133.044 32.1057C133.195 31.9379 133.373 31.8053 133.578 31.7079C133.783 31.6072 134.004 31.5569 134.242 31.5569C134.491 31.5569 134.718 31.6106 134.922 31.718C135.13 31.8221 135.307 31.9597 135.451 32.1309C135.599 32.3021 135.713 32.4968 135.793 32.715C135.874 32.9299 135.914 33.1498 135.914 33.3747C135.914 33.613 135.871 33.8413 135.783 34.0595C135.699 34.2777 135.582 34.4708 135.431 34.6386C135.283 34.8031 135.107 34.9357 134.902 35.0364C134.697 35.1338 134.476 35.1825 134.237 35.1825ZM132.913 33.3697C132.913 33.5644 132.945 33.7524 133.009 33.9336C133.073 34.1116 133.163 34.271 133.281 34.412C133.398 34.5497 133.538 34.6604 133.699 34.7444C133.86 34.8249 134.039 34.8652 134.237 34.8652C134.439 34.8652 134.622 34.8216 134.786 34.7343C134.951 34.647 135.09 34.5329 135.204 34.3919C135.318 34.2509 135.406 34.0914 135.466 33.9135C135.53 33.7356 135.562 33.5543 135.562 33.3697C135.562 33.1749 135.528 32.9886 135.461 32.8107C135.397 32.6294 135.307 32.47 135.189 32.3323C135.072 32.1947 134.932 32.0856 134.771 32.005C134.61 31.9211 134.432 31.8791 134.237 31.8791C134.036 31.8791 133.853 31.9228 133.689 32.0101C133.524 32.094 133.385 32.2064 133.271 32.3474C133.156 32.4884 133.068 32.6479 133.004 32.8258C132.943 33.0037 132.913 33.185 132.913 33.3697Z" fill="black"/>
<path d="M136.931 32.2367V35.1573H136.579V31.582H136.851L139.217 34.558V31.5871H139.57V35.1573H139.263L136.931 32.2367Z" fill="black"/>
<path d="M141.909 35.1825C141.66 35.1825 141.432 35.1321 141.224 35.0314C141.019 34.9273 140.843 34.7914 140.695 34.6235C140.548 34.4523 140.433 34.2576 140.353 34.0394C140.272 33.8212 140.232 33.5979 140.232 33.3697C140.232 33.1313 140.274 32.903 140.358 32.6848C140.445 32.4666 140.564 32.2736 140.715 32.1057C140.866 31.9379 141.044 31.8053 141.249 31.7079C141.454 31.6072 141.675 31.5569 141.914 31.5569C142.162 31.5569 142.389 31.6106 142.594 31.718C142.802 31.8221 142.978 31.9597 143.122 32.1309C143.27 32.3021 143.384 32.4968 143.465 32.715C143.545 32.9299 143.586 33.1498 143.586 33.3747C143.586 33.613 143.542 33.8413 143.455 34.0595C143.371 34.2777 143.253 34.4708 143.102 34.6386C142.955 34.8031 142.778 34.9357 142.573 35.0364C142.369 35.1338 142.147 35.1825 141.909 35.1825ZM140.584 33.3697C140.584 33.5644 140.616 33.7524 140.68 33.9336C140.744 34.1116 140.835 34.271 140.952 34.412C141.07 34.5497 141.209 34.6604 141.37 34.7444C141.531 34.8249 141.711 34.8652 141.909 34.8652C142.11 34.8652 142.293 34.8216 142.458 34.7343C142.622 34.647 142.761 34.5329 142.876 34.3919C142.99 34.2509 143.077 34.0914 143.137 33.9135C143.201 33.7356 143.233 33.5543 143.233 33.3697C143.233 33.1749 143.2 32.9886 143.132 32.8107C143.069 32.6294 142.978 32.47 142.861 32.3323C142.743 32.1947 142.604 32.0856 142.443 32.005C142.281 31.9211 142.104 31.8791 141.909 31.8791C141.707 31.8791 141.524 31.9228 141.36 32.0101C141.195 32.094 141.056 32.2064 140.942 32.3474C140.828 32.4884 140.739 32.6479 140.675 32.8258C140.615 33.0037 140.584 33.185 140.584 33.3697Z" fill="black"/>
<path d="M135.224 40.489L134.812 40.056C134.671 40.2071 134.508 40.3262 134.323 40.4135C134.142 40.4974 133.944 40.5394 133.729 40.5394C133.571 40.5394 133.422 40.5159 133.281 40.4689C133.143 40.4219 133.022 40.3564 132.918 40.2725C132.817 40.1852 132.737 40.0828 132.676 39.9653C132.616 39.8445 132.586 39.7119 132.586 39.5675C132.586 39.4467 132.606 39.3359 132.646 39.2352C132.686 39.1345 132.742 39.0422 132.812 38.9582C132.883 38.871 132.963 38.7904 133.054 38.7165C133.145 38.6427 133.24 38.5722 133.341 38.505C133.25 38.4077 133.173 38.3204 133.109 38.2432C133.049 38.166 132.999 38.0955 132.958 38.0317C132.921 37.9646 132.895 37.9008 132.878 37.8403C132.861 37.7799 132.853 37.7178 132.853 37.654C132.853 37.5432 132.874 37.4409 132.918 37.3469C132.965 37.2495 133.029 37.1656 133.109 37.0951C133.19 37.0246 133.284 36.9692 133.391 36.9289C133.502 36.8886 133.621 36.8685 133.749 36.8685C133.866 36.8685 133.976 36.8853 134.076 36.9188C134.177 36.9524 134.264 37.0011 134.338 37.0649C134.415 37.1253 134.476 37.1991 134.519 37.2864C134.563 37.3737 134.585 37.4694 134.585 37.5735C134.585 37.6775 134.563 37.7732 134.519 37.8605C134.479 37.9444 134.424 38.025 134.353 38.1022C134.283 38.1794 134.201 38.2533 134.107 38.3238C134.013 38.3943 133.912 38.4648 133.804 38.5352L134.806 39.5826C134.874 39.4551 134.926 39.3174 134.963 39.1697C135.003 39.0187 135.023 38.8609 135.023 38.6964H135.315C135.312 38.9045 135.283 39.1009 135.229 39.2855C135.179 39.4702 135.105 39.6397 135.008 39.7941L135.678 40.489H135.224ZM133.764 40.2624C133.935 40.2624 134.093 40.2272 134.237 40.1567C134.382 40.0828 134.509 39.9821 134.62 39.8546L133.538 38.7115C133.36 38.8357 133.212 38.9666 133.094 39.1043C132.977 39.2385 132.918 39.3963 132.918 39.5776C132.918 39.6884 132.942 39.7874 132.989 39.8747C133.039 39.9586 133.104 40.0308 133.185 40.0912C133.266 40.1483 133.356 40.1919 133.457 40.2222C133.558 40.249 133.66 40.2624 133.764 40.2624ZM133.17 37.644C133.17 37.6842 133.175 37.7245 133.185 37.7648C133.198 37.8051 133.222 37.8521 133.256 37.9058C133.289 37.9562 133.333 38.0166 133.386 38.0871C133.444 38.1542 133.517 38.2348 133.608 38.3288C133.803 38.2012 133.96 38.082 134.081 37.9713C134.206 37.8571 134.268 37.7279 134.268 37.5835C134.268 37.4526 134.219 37.3452 134.122 37.2613C134.024 37.1773 133.9 37.1354 133.749 37.1354C133.665 37.1354 133.588 37.1488 133.517 37.1756C133.447 37.2025 133.385 37.2394 133.331 37.2864C133.281 37.3334 133.24 37.3871 133.21 37.4476C133.183 37.508 133.17 37.5735 133.17 37.644Z" fill="black"/>
<path d="M140.259 36.9138V40.489H139.912V38.8172H137.792V40.489H137.439V36.9138H137.792V38.505H139.912V36.9138H140.259Z" fill="black"/>
<path d="M143.559 40.1768V40.489H141.157V36.9138H143.514V37.226H141.51V38.5151H143.257V38.8122H141.51V40.1768H143.559Z" fill="black"/>
<path d="M144.226 40.489V36.9138H145.736C145.891 36.9138 146.032 36.9474 146.159 37.0145C146.29 37.0783 146.403 37.1639 146.497 37.2713C146.591 37.3754 146.663 37.4946 146.713 37.6288C146.767 37.7631 146.794 37.8991 146.794 38.0367C146.794 38.1677 146.774 38.2935 146.733 38.4144C146.696 38.5319 146.643 38.6393 146.572 38.7367C146.505 38.8307 146.423 38.9112 146.325 38.9784C146.228 39.0422 146.119 39.0858 145.998 39.1093L146.874 40.489H146.477L145.636 39.1697H144.578V40.489H144.226ZM144.578 38.8575H145.746C145.85 38.8575 145.944 38.8357 146.028 38.7921C146.116 38.7451 146.19 38.683 146.25 38.6057C146.31 38.5285 146.357 38.4413 146.391 38.3439C146.424 38.2465 146.441 38.1442 146.441 38.0367C146.441 37.9293 146.421 37.8269 146.381 37.7296C146.344 37.6288 146.292 37.5416 146.225 37.4677C146.161 37.3939 146.084 37.3351 145.993 37.2915C145.906 37.2478 145.814 37.226 145.716 37.226H144.578V38.8575Z" fill="black"/>
<path d="M147.515 40.489V36.9138H149.026C149.181 36.9138 149.322 36.9474 149.449 37.0145C149.58 37.0783 149.693 37.1639 149.787 37.2713C149.88 37.3754 149.953 37.4946 150.003 37.6288C150.057 37.7631 150.084 37.8991 150.084 38.0367C150.084 38.1677 150.063 38.2935 150.023 38.4144C149.986 38.5319 149.933 38.6393 149.862 38.7367C149.795 38.8307 149.713 38.9112 149.615 38.9784C149.518 39.0422 149.409 39.0858 149.288 39.1093L150.164 40.489H149.766L148.925 39.1697H147.868V40.489H147.515ZM147.868 38.8575H149.036C149.14 38.8575 149.234 38.8357 149.318 38.7921C149.405 38.7451 149.479 38.683 149.54 38.6057C149.6 38.5285 149.647 38.4413 149.681 38.3439C149.714 38.2465 149.731 38.1442 149.731 38.0367C149.731 37.9293 149.711 37.8269 149.671 37.7296C149.634 37.6288 149.582 37.5416 149.515 37.4677C149.451 37.3939 149.374 37.3351 149.283 37.2915C149.196 37.2478 149.103 37.226 149.006 37.226H147.868V38.8575Z" fill="black"/>
<path d="M153.207 40.1768V40.489H150.805V36.9138H153.162V37.226H151.158V38.5151H152.905V38.8122H151.158V40.1768H153.207Z" fill="black"/>
<path d="M153.874 40.489V36.9138H155.385C155.539 36.9138 155.68 36.9474 155.807 37.0145C155.938 37.0783 156.051 37.1639 156.145 37.2713C156.239 37.3754 156.311 37.4946 156.361 37.6288C156.415 37.7631 156.442 37.8991 156.442 38.0367C156.442 38.1677 156.422 38.2935 156.382 38.4144C156.345 38.5319 156.291 38.6393 156.22 38.7367C156.153 38.8307 156.071 38.9112 155.974 38.9784C155.876 39.0422 155.767 39.0858 155.646 39.1093L156.523 40.489H156.125L155.284 39.1697H154.226V40.489H153.874ZM154.226 38.8575H155.395C155.499 38.8575 155.593 38.8357 155.677 38.7921C155.764 38.7451 155.838 38.683 155.898 38.6057C155.959 38.5285 156.006 38.4413 156.039 38.3439C156.073 38.2465 156.089 38.1442 156.089 38.0367C156.089 37.9293 156.069 37.8269 156.029 37.7296C155.992 37.6288 155.94 37.5416 155.873 37.4677C155.809 37.3939 155.732 37.3351 155.641 37.2915C155.554 37.2478 155.462 37.226 155.364 37.226H154.226V38.8575Z" fill="black"/>
<path d="M158.217 36.9138H158.514L160 40.489H159.627L159.164 39.3712H157.558L157.1 40.489H156.722L158.217 36.9138ZM159.084 39.0942L158.363 37.3267L157.633 39.0942H159.084Z" fill="black"/>
<path d="M133.739 42.2456H134.353L135.713 45.8208H134.998L134.665 44.9295H133.417L133.089 45.8208H132.374L133.739 42.2456ZM134.54 44.4411L134.046 43.0361L133.532 44.4411H134.54Z" fill="black"/>
<path d="M137.54 45.8712C137.339 45.8712 137.159 45.8258 137.001 45.7352C136.844 45.6446 136.719 45.5204 136.629 45.3626V45.8208H136.04V42.1449H136.714V43.6454C136.808 43.4843 136.931 43.3601 137.082 43.2728C137.236 43.1822 137.416 43.1369 137.621 43.1369C137.792 43.1369 137.948 43.1738 138.089 43.2476C138.23 43.3215 138.351 43.4205 138.452 43.5447C138.556 43.669 138.635 43.815 138.688 43.9828C138.745 44.1507 138.774 44.3269 138.774 44.5116C138.774 44.7029 138.742 44.8808 138.678 45.0453C138.618 45.2098 138.532 45.3542 138.421 45.4784C138.311 45.5992 138.18 45.6949 138.029 45.7654C137.878 45.8359 137.715 45.8712 137.54 45.8712ZM137.354 45.2971C137.461 45.2971 137.56 45.277 137.651 45.2367C137.742 45.193 137.819 45.136 137.883 45.0655C137.946 44.995 137.995 44.9127 138.029 44.8187C138.066 44.7247 138.084 44.624 138.084 44.5166C138.084 44.4092 138.067 44.3068 138.034 44.2094C138 44.1121 137.951 44.0265 137.888 43.9526C137.827 43.8788 137.755 43.82 137.671 43.7764C137.587 43.7327 137.495 43.7109 137.394 43.7109C137.243 43.7109 137.107 43.7613 136.986 43.862C136.869 43.9593 136.778 44.0802 136.714 44.2245V44.854C136.738 44.9211 136.771 44.9816 136.815 45.0353C136.862 45.089 136.914 45.136 136.971 45.1763C137.028 45.2132 137.09 45.2434 137.157 45.2669C137.225 45.287 137.29 45.2971 137.354 45.2971Z" fill="black"/>
<path d="M140.45 45.8712C140.235 45.8712 140.042 45.8342 139.871 45.7604C139.699 45.6865 139.553 45.5875 139.432 45.4633C139.315 45.3357 139.224 45.1897 139.161 45.0252C139.097 44.8607 139.065 44.6878 139.065 44.5065C139.065 44.3219 139.097 44.1473 139.161 43.9828C139.224 43.8183 139.315 43.674 139.432 43.5498C139.553 43.4222 139.699 43.3215 139.871 43.2476C140.042 43.1738 140.235 43.1369 140.45 43.1369C140.664 43.1369 140.856 43.1738 141.024 43.2476C141.195 43.3215 141.339 43.4222 141.457 43.5498C141.578 43.674 141.67 43.8183 141.734 43.9828C141.797 44.1473 141.829 44.3219 141.829 44.5065C141.829 44.6878 141.797 44.8607 141.734 45.0252C141.67 45.1897 141.579 45.3357 141.462 45.4633C141.344 45.5875 141.2 45.6865 141.029 45.7604C140.858 45.8342 140.664 45.8712 140.45 45.8712ZM139.76 44.5065C139.76 44.624 139.777 44.7315 139.81 44.8288C139.847 44.9228 139.896 45.0051 139.956 45.0755C140.02 45.146 140.094 45.2014 140.178 45.2417C140.262 45.2787 140.352 45.2971 140.45 45.2971C140.547 45.2971 140.638 45.2787 140.722 45.2417C140.805 45.2014 140.878 45.146 140.938 45.0755C141.002 45.0051 141.051 44.9211 141.084 44.8238C141.121 44.7264 141.14 44.619 141.14 44.5015C141.14 44.3874 141.121 44.2816 141.084 44.1843C141.051 44.0869 141.002 44.003 140.938 43.9325C140.878 43.862 140.805 43.8083 140.722 43.7713C140.638 43.7311 140.547 43.7109 140.45 43.7109C140.352 43.7109 140.262 43.7311 140.178 43.7713C140.094 43.8116 140.02 43.867 139.956 43.9375C139.896 44.008 139.847 44.0919 139.81 44.1893C139.777 44.2866 139.76 44.3924 139.76 44.5065Z" fill="black"/>
<path d="M143.317 45.8359C143.139 45.8359 142.978 45.8007 142.834 45.7302C142.689 45.6597 142.563 45.564 142.456 45.4431C142.352 45.3189 142.271 45.1763 142.214 45.0151C142.157 44.854 142.129 44.6828 142.129 44.5015C142.129 44.3101 142.159 44.1322 142.219 43.9677C142.28 43.8032 142.364 43.6589 142.471 43.5347C142.579 43.4105 142.708 43.3131 142.859 43.2426C143.01 43.1721 143.176 43.1369 143.357 43.1369C143.562 43.1369 143.742 43.1839 143.896 43.2779C144.051 43.3685 144.178 43.491 144.279 43.6454V43.1822H144.868V45.6949C144.868 45.8896 144.831 46.0642 144.757 46.2186C144.683 46.373 144.581 46.504 144.45 46.6114C144.323 46.7188 144.168 46.8011 143.987 46.8581C143.809 46.9152 143.614 46.9437 143.403 46.9437C143.114 46.9437 142.871 46.8951 142.673 46.7977C142.478 46.7037 142.31 46.5694 142.169 46.3949L142.537 46.0373C142.637 46.1616 142.763 46.2589 142.914 46.3294C143.069 46.3999 143.232 46.4351 143.403 46.4351C143.507 46.4351 143.606 46.42 143.7 46.3898C143.797 46.363 143.883 46.3193 143.957 46.2589C144.03 46.1985 144.088 46.1213 144.128 46.0273C144.171 45.9333 144.193 45.8225 144.193 45.6949V45.3626C144.106 45.5136 143.983 45.6311 143.826 45.7151C143.668 45.7956 143.498 45.8359 143.317 45.8359ZM143.544 45.2971C143.618 45.2971 143.688 45.2854 143.755 45.2619C143.822 45.2384 143.884 45.2065 143.942 45.1662C143.999 45.1259 144.049 45.0789 144.093 45.0252C144.136 44.9715 144.17 44.9144 144.193 44.854V44.2245C144.133 44.0701 144.037 43.9459 143.906 43.8519C143.779 43.7579 143.644 43.7109 143.503 43.7109C143.399 43.7109 143.305 43.7344 143.221 43.7814C143.138 43.825 143.065 43.8855 143.005 43.9627C142.944 44.0365 142.897 44.1222 142.864 44.2195C142.834 44.3169 142.819 44.4176 142.819 44.5216C142.819 44.6291 142.837 44.7298 142.874 44.8238C142.911 44.9178 142.961 45 143.025 45.0705C143.092 45.141 143.169 45.1964 143.257 45.2367C143.344 45.277 143.44 45.2971 143.544 45.2971Z" fill="black"/>
<path d="M146.196 45.8712C146.069 45.8712 145.95 45.851 145.839 45.8107C145.728 45.7671 145.632 45.7084 145.552 45.6345C145.471 45.5573 145.407 45.4683 145.36 45.3676C145.317 45.2669 145.295 45.1561 145.295 45.0353C145.295 44.9111 145.322 44.7969 145.376 44.6928C145.433 44.5854 145.51 44.4948 145.607 44.4209C145.708 44.3471 145.827 44.29 145.965 44.2497C146.102 44.2061 146.253 44.1843 146.418 44.1843C146.535 44.1843 146.65 44.1943 146.76 44.2145C146.875 44.2346 146.975 44.2631 147.063 44.3001V44.149C147.063 43.9744 147.012 43.8402 146.911 43.7462C146.814 43.6522 146.668 43.6052 146.473 43.6052C146.332 43.6052 146.195 43.6303 146.06 43.6807C145.926 43.7311 145.789 43.8049 145.648 43.9023L145.441 43.4742C145.78 43.2493 146.146 43.1369 146.539 43.1369C146.918 43.1369 147.212 43.2309 147.42 43.4188C147.632 43.6035 147.737 43.8721 147.737 44.2245V45.0453C147.737 45.1158 147.749 45.1662 147.773 45.1964C147.799 45.2266 147.841 45.2434 147.898 45.2468V45.8208C147.784 45.8443 147.685 45.8561 147.601 45.8561C147.474 45.8561 147.375 45.8275 147.304 45.7705C147.237 45.7134 147.195 45.6379 147.178 45.5439L147.163 45.3978C147.046 45.5522 146.903 45.6697 146.735 45.7503C146.567 45.8309 146.388 45.8712 146.196 45.8712ZM146.388 45.3777C146.502 45.3777 146.609 45.3575 146.71 45.3173C146.814 45.277 146.895 45.2233 146.952 45.1561C147.026 45.099 147.063 45.0353 147.063 44.9648V44.6626C146.982 44.6324 146.895 44.6089 146.801 44.5921C146.707 44.572 146.616 44.5619 146.529 44.5619C146.354 44.5619 146.211 44.6022 146.101 44.6828C145.99 44.76 145.935 44.859 145.935 44.9799C145.935 45.094 145.978 45.1897 146.065 45.2669C146.153 45.3408 146.26 45.3777 146.388 45.3777Z" fill="black"/>
<path d="M149.461 45.8712C149.279 45.8712 149.111 45.8359 148.957 45.7654C148.803 45.6949 148.67 45.5976 148.559 45.4734C148.448 45.3491 148.361 45.2048 148.297 45.0403C148.237 44.8724 148.207 44.6928 148.207 44.5015C148.207 44.3101 148.235 44.1322 148.292 43.9677C148.353 43.8032 148.435 43.6589 148.539 43.5347C148.643 43.4105 148.767 43.3131 148.912 43.2426C149.056 43.1721 149.214 43.1369 149.385 43.1369C149.58 43.1369 149.754 43.1839 149.909 43.2779C150.066 43.3719 150.189 43.4944 150.276 43.6454V42.1449H150.951V45.0453C150.951 45.1158 150.963 45.1662 150.986 45.1964C151.01 45.2266 151.05 45.2434 151.107 45.2468V45.8208C150.99 45.8443 150.894 45.8561 150.82 45.8561C150.699 45.8561 150.6 45.8258 150.523 45.7654C150.446 45.705 150.402 45.6261 150.392 45.5287L150.377 45.3626C150.28 45.5304 150.147 45.658 149.979 45.7453C149.815 45.8292 149.642 45.8712 149.461 45.8712ZM149.637 45.2971C149.701 45.2971 149.766 45.287 149.833 45.2669C149.9 45.2434 149.962 45.2115 150.019 45.1712C150.077 45.1309 150.127 45.0839 150.171 45.0302C150.218 44.9765 150.253 44.9178 150.276 44.854V44.2245C150.249 44.1507 150.211 44.0835 150.16 44.0231C150.113 43.9593 150.058 43.9056 149.994 43.862C149.934 43.815 149.868 43.7781 149.798 43.7512C149.731 43.7243 149.664 43.7109 149.596 43.7109C149.496 43.7109 149.402 43.7327 149.315 43.7764C149.231 43.82 149.158 43.8804 149.098 43.9577C149.038 44.0315 148.991 44.1171 148.957 44.2145C148.923 44.3118 148.907 44.4125 148.907 44.5166C148.907 44.6274 148.925 44.7298 148.962 44.8238C148.999 44.9178 149.049 45 149.113 45.0705C149.177 45.141 149.252 45.1964 149.34 45.2367C149.43 45.277 149.529 45.2971 149.637 45.2971Z" fill="black"/>
<path d="M152.832 45.8712C152.617 45.8712 152.424 45.8342 152.253 45.7604C152.082 45.6865 151.936 45.5875 151.815 45.4633C151.697 45.3357 151.607 45.1897 151.543 45.0252C151.479 44.8607 151.447 44.6878 151.447 44.5065C151.447 44.3219 151.479 44.1473 151.543 43.9828C151.607 43.8183 151.697 43.674 151.815 43.5498C151.936 43.4222 152.082 43.3215 152.253 43.2476C152.424 43.1738 152.617 43.1369 152.832 43.1369C153.047 43.1369 153.238 43.1738 153.406 43.2476C153.577 43.3215 153.722 43.4222 153.839 43.5498C153.96 43.674 154.052 43.8183 154.116 43.9828C154.18 44.1473 154.212 44.3219 154.212 44.5065C154.212 44.6878 154.18 44.8607 154.116 45.0252C154.052 45.1897 153.962 45.3357 153.844 45.4633C153.727 45.5875 153.582 45.6865 153.411 45.7604C153.24 45.8342 153.047 45.8712 152.832 45.8712ZM152.142 44.5065C152.142 44.624 152.159 44.7315 152.192 44.8288C152.229 44.9228 152.278 45.0051 152.339 45.0755C152.402 45.146 152.476 45.2014 152.56 45.2417C152.644 45.2787 152.735 45.2971 152.832 45.2971C152.929 45.2971 153.02 45.2787 153.104 45.2417C153.188 45.2014 153.26 45.146 153.32 45.0755C153.384 45.0051 153.433 44.9211 153.466 44.8238C153.503 44.7264 153.522 44.619 153.522 44.5015C153.522 44.3874 153.503 44.2816 153.466 44.1843C153.433 44.0869 153.384 44.003 153.32 43.9325C153.26 43.862 153.188 43.8083 153.104 43.7713C153.02 43.7311 152.929 43.7109 152.832 43.7109C152.735 43.7109 152.644 43.7311 152.56 43.7713C152.476 43.8116 152.402 43.867 152.339 43.9375C152.278 44.008 152.229 44.0919 152.192 44.1893C152.159 44.2866 152.142 44.3924 152.142 44.5065Z" fill="black"/>
<path d="M155.664 45.8712C155.443 45.8712 155.226 45.8359 155.015 45.7654C154.803 45.6949 154.622 45.5942 154.471 45.4633L154.723 45.0403C154.884 45.1544 155.04 45.2417 155.191 45.3021C155.345 45.3592 155.498 45.3878 155.649 45.3878C155.783 45.3878 155.889 45.3626 155.966 45.3122C156.044 45.2619 156.082 45.1897 156.082 45.0957C156.082 45.0017 156.037 44.9329 155.946 44.8892C155.856 44.8456 155.708 44.7952 155.503 44.7382C155.332 44.6912 155.186 44.6458 155.065 44.6022C154.944 44.5586 154.847 44.5099 154.773 44.4562C154.699 44.3991 154.645 44.3353 154.612 44.2648C154.578 44.191 154.561 44.1037 154.561 44.003C154.561 43.8687 154.587 43.7478 154.637 43.6404C154.691 43.533 154.765 43.4423 154.859 43.3685C154.953 43.2913 155.062 43.2325 155.186 43.1922C155.313 43.152 155.451 43.1318 155.599 43.1318C155.797 43.1318 155.981 43.1604 156.153 43.2174C156.327 43.2745 156.487 43.3668 156.631 43.4944L156.359 43.9023C156.225 43.8016 156.094 43.7277 155.966 43.6807C155.842 43.6337 155.718 43.6102 155.594 43.6102C155.48 43.6102 155.384 43.6337 155.307 43.6807C155.229 43.7277 155.191 43.8032 155.191 43.9073C155.191 43.9543 155.199 43.9929 155.216 44.0231C155.236 44.0533 155.266 44.0802 155.307 44.1037C155.347 44.1272 155.399 44.1507 155.463 44.1742C155.53 44.1943 155.612 44.2161 155.71 44.2396C155.891 44.2866 156.045 44.3336 156.173 44.3806C156.304 44.4276 156.409 44.4814 156.49 44.5418C156.574 44.6022 156.634 44.6727 156.671 44.7533C156.712 44.8305 156.732 44.9245 156.732 45.0353C156.732 45.2938 156.636 45.4985 156.445 45.6496C156.253 45.7973 155.993 45.8712 155.664 45.8712Z" fill="black"/>
<path fill-rule="evenodd" clip-rule="evenodd" d="M123.463 47.0056L123.463 8.49845L123.167 8.49845L123.167 47.0056L123.463 47.0056Z" stroke="url(#paint0_linear)" stroke-width="0.5"/>
<rect width="19.4933" height="54.6155" fill="black" fill-opacity="0"/>
<path fill-rule="evenodd" clip-rule="evenodd" d="M17.1237 7.77168L11.5076 1.59402L13.261 0L19.4934 6.85555V47.7599L13.261 54.6155L11.5076 53.0215L17.1237 46.8438V7.77168Z" fill="url(#paint1_linear)"/>
<path fill-rule="evenodd" clip-rule="evenodd" d="M11.7922 10.8061L7.26654 5.52198L8.61639 4.36589L13.5694 10.1491V44.7626L8.61639 50.5458L7.26654 49.3897L11.7922 44.1056V10.8061Z" fill="url(#paint2_linear)"/>
<path fill-rule="evenodd" clip-rule="evenodd" d="M6.75588 12.9069L3.3175 8.25832L4.27008 7.55374L7.94072 12.5163V42.3954L4.27008 47.3579L3.3175 46.6534L6.75588 42.0048V12.9069Z" fill="url(#paint3_linear)"/>
<path fill-rule="evenodd" clip-rule="evenodd" d="M2.90553 15.0418L0 11.0422L0.479295 10.694L3.49795 14.8493V40.0624L0.479295 44.2177L0 43.8695L2.90553 39.8699V15.0418Z" fill="url(#paint4_linear)"/>
<path d="M56.4333 40.489V30.7438L52.6389 38.0009H51.0838L47.2893 30.7438V40.489H44.4279V25.7674H47.4967L51.851 34.1442L56.2467 25.7674H59.2947V40.489H56.4333Z" fill="black"/>
<path d="M68.3813 38.0631C69.0587 38.0631 69.6254 37.9249 70.0816 37.6484C70.5516 37.3719 70.9248 37.0125 71.2012 36.5702C71.4915 36.1279 71.692 35.6233 71.8025 35.0566C71.927 34.476 71.9892 33.8816 71.9892 33.2734V25.7674H74.8298V33.2734C74.8298 34.2825 74.7054 35.2294 74.4566 36.114C74.2216 36.9987 73.8415 37.7728 73.3162 38.4363C72.8047 39.0998 72.1412 39.6251 71.3256 40.0121C70.5101 40.3992 69.5356 40.5927 68.4021 40.5927C67.2271 40.5927 66.2249 40.3923 65.3955 39.9914C64.58 39.5767 63.9165 39.0376 63.405 38.3741C62.8936 37.6968 62.5203 36.9158 62.2853 36.0311C62.0642 35.1464 61.9536 34.2272 61.9536 33.2734V25.7674H64.815V33.2734C64.815 33.8954 64.8703 34.4967 64.9808 35.0773C65.1053 35.6441 65.3057 36.1486 65.5821 36.5909C65.8724 37.0333 66.2457 37.3927 66.7018 37.6691C67.158 37.9318 67.7178 38.0631 68.3813 38.0631Z" fill="black"/>
<path d="M80.366 31.0548V40.489H77.5046V25.7674H79.7232L87.395 35.4298V25.7882H90.2564V40.489H87.9341L80.366 31.0548ZM85.1764 24.1709C84.8585 24.1709 84.582 24.1225 84.347 24.0257C84.112 23.929 83.8908 23.8253 83.6835 23.7147C83.49 23.5903 83.2895 23.4797 83.0822 23.383C82.8887 23.2862 82.6813 23.2378 82.4602 23.2378C82.2252 23.2378 82.0385 23.2862 81.9003 23.383C81.7759 23.4797 81.6791 23.5903 81.61 23.7147C81.5409 23.8391 81.4995 23.9566 81.4856 24.0672C81.4718 24.164 81.4649 24.2193 81.4649 24.2331H79.9305C79.9305 24.1087 79.972 23.9013 80.0549 23.611C80.1379 23.3069 80.2692 23.0097 80.4489 22.7195C80.6424 22.4153 80.8912 22.1527 81.1953 21.9315C81.5133 21.6965 81.9003 21.5791 82.3565 21.5791C82.6744 21.5791 82.944 21.6343 83.1651 21.7449C83.4001 21.8417 83.6144 21.9523 83.8079 22.0767C84.0153 22.1873 84.2157 22.2979 84.4092 22.4084C84.6166 22.5052 84.8446 22.5536 85.0935 22.5536C85.3423 22.5536 85.5358 22.5052 85.674 22.4084C85.8261 22.3117 85.9367 22.2011 86.0058 22.0767C86.0887 21.9523 86.1371 21.8348 86.1509 21.7242C86.1786 21.6136 86.1924 21.5445 86.1924 21.5168H87.7268C87.7268 21.6136 87.6853 21.8071 87.6023 22.0974C87.5194 22.3877 87.3743 22.6849 87.1669 22.989C86.9734 23.2931 86.7108 23.5696 86.379 23.8184C86.0611 24.0534 85.6602 24.1709 85.1764 24.1709Z" fill="black"/>
<path d="M93.1114 40.489V25.7674H95.9728V40.489H93.1114Z" fill="black"/>
<path d="M97.9246 38.3326L106.239 28.2763H98.1527V25.7674H109.536V27.9239L101.491 37.9802H109.598V40.489H97.9246V38.3326Z" fill="black"/>
<defs>
<linearGradient id="paint0_linear" x1="123.133" y1="37.7343" x2="123.133" y2="19.8602" gradientUnits="userSpaceOnUse">
<stop stop-color="#29762A"/>
<stop offset="1" stop-color="#95CF20"/>
</linearGradient>
<linearGradient id="paint1_linear" x1="15.5005" y1="0" x2="15.5005" y2="54.6155" gradientUnits="userSpaceOnUse">
<stop stop-color="#26732A"/>
<stop offset="1" stop-color="#99D21F"/>
</linearGradient>
<linearGradient id="paint2_linear" x1="10.418" y1="4.36589" x2="10.418" y2="50.5458" gradientUnits="userSpaceOnUse">
<stop stop-color="#26732A"/>
<stop offset="1" stop-color="#99D21F"/>
</linearGradient>
<linearGradient id="paint3_linear" x1="5.62911" y1="7.55374" x2="5.62911" y2="47.3579" gradientUnits="userSpaceOnUse">
<stop stop-color="#26732A"/>
<stop offset="1" stop-color="#99D21F"/>
</linearGradient>
<linearGradient id="paint4_linear" x1="1.74897" y1="10.694" x2="1.74897" y2="44.2177" gradientUnits="userSpaceOnUse">
<stop stop-color="#26732A"/>
<stop offset="1" stop-color="#99D21F"/>
</linearGradient>
</defs>
</svg>
