<svg width="222" height="75" viewBox="0 0 222 75" fill="none" xmlns="http://www.w3.org/2000/svg">
<rect width="221.154" height="75" fill="black" fill-opacity="0"/>
<path d="M48.7973 28.6601V29.568H41.7666V19.1711H48.6646V20.079H42.7984V23.8278H47.9129V24.6917H42.7984V28.6601H48.7973Z" fill="black"/>
<path d="M56.6493 21.1187C56.3545 20.7868 55.9615 20.5183 55.4702 20.3133C54.9789 20.1083 54.4188 20.0058 53.7899 20.0058C52.8662 20.0058 52.1931 20.1815 51.7706 20.533C51.3481 20.8747 51.1368 21.3432 51.1368 21.9388C51.1368 22.2511 51.1908 22.5099 51.2989 22.7149C51.4169 22.9101 51.5937 23.081 51.8296 23.2274C52.0654 23.3738 52.3651 23.5007 52.7287 23.6081C53.1021 23.7155 53.5393 23.8229 54.0405 23.9303C54.6006 24.0474 55.1017 24.1792 55.5439 24.3257C55.9959 24.4721 56.3791 24.6576 56.6935 24.8821C57.008 25.0969 57.2487 25.3605 57.4158 25.6729C57.5828 25.9853 57.6663 26.3758 57.6663 26.8443C57.6663 27.3227 57.573 27.7376 57.3863 28.089C57.1996 28.4405 56.9392 28.7334 56.6051 28.9677C56.271 29.202 55.8731 29.3777 55.4112 29.4948C54.9494 29.6022 54.4433 29.6559 53.8931 29.6559C52.2717 29.6559 50.8715 29.1531 49.6923 28.1476L50.2082 27.3129C50.3949 27.5082 50.616 27.6937 50.8715 27.8694C51.1368 28.0451 51.4267 28.2013 51.7411 28.338C52.0654 28.4649 52.4093 28.5674 52.7729 28.6455C53.1364 28.7138 53.5197 28.748 53.9225 28.748C54.7578 28.748 55.4063 28.6016 55.8681 28.3087C56.3398 28.0061 56.5756 27.5521 56.5756 26.9469C56.5756 26.6247 56.5068 26.3562 56.3693 26.1415C56.2415 25.9169 56.045 25.7266 55.7797 25.5704C55.5144 25.4044 55.1852 25.2628 54.7922 25.1457C54.3991 25.0285 53.9422 24.9114 53.4214 24.7942C52.8711 24.6673 52.3897 24.5355 51.9769 24.3989C51.5642 24.2622 51.2154 24.0914 50.9305 23.8863C50.6455 23.6813 50.4293 23.4373 50.2819 23.1542C50.1444 22.8613 50.0756 22.505 50.0756 22.0852C50.0756 21.6068 50.164 21.1822 50.3409 20.8112C50.5276 20.4305 50.788 20.1181 51.1221 19.874C51.4562 19.6202 51.8492 19.4298 52.3012 19.3029C52.7532 19.1662 53.2544 19.0979 53.8046 19.0979C54.5023 19.0979 55.1213 19.2053 55.6618 19.4201C56.2121 19.6251 56.7083 19.9179 57.1505 20.2987L56.6493 21.1187Z" fill="black"/>
<path d="M66.8422 20.079H63.1131V29.568H62.0814V20.079H58.3523V19.1711H66.8422V20.079Z" fill="black"/>
<path d="M72.6547 28.7187C73.313 28.7187 73.8584 28.5967 74.2907 28.3526C74.7329 28.0988 75.0817 27.7718 75.3372 27.3715C75.6025 26.9615 75.7843 26.4978 75.8826 25.9804C75.9907 25.463 76.0447 24.9407 76.0447 24.4135V19.1711H77.0765V24.4135C77.0765 25.1164 76.9979 25.7851 76.8406 26.4197C76.6834 27.0445 76.4279 27.596 76.0742 28.0744C75.7303 28.5528 75.2783 28.9335 74.7182 29.2166C74.1581 29.4997 73.4752 29.6413 72.6694 29.6413C71.844 29.6413 71.1463 29.4948 70.5764 29.202C70.0163 28.8993 69.5643 28.504 69.2204 28.0158C68.8765 27.5277 68.6308 26.9713 68.4834 26.3465C68.336 25.7217 68.2623 25.0774 68.2623 24.4135V19.1711H69.2793V24.4135C69.2793 24.9602 69.3334 25.4923 69.4415 26.0097C69.5496 26.5271 69.7314 26.9859 69.9868 27.3862C70.2521 27.7864 70.601 28.1086 71.0333 28.3526C71.4657 28.5967 72.0061 28.7187 72.6547 28.7187Z" fill="black"/>
<path d="M79.5362 29.568V19.1711H83.0884C83.9236 19.1711 84.6508 19.3078 85.2698 19.5811C85.8987 19.8545 86.4195 20.2255 86.8322 20.694C87.2547 21.1626 87.5692 21.7142 87.7755 22.3488C87.9917 22.9736 88.0998 23.6423 88.0998 24.3549C88.0998 25.1457 87.9819 25.8632 87.746 26.5075C87.5102 27.1421 87.1712 27.6888 86.729 28.1476C86.2967 28.5967 85.771 28.9481 85.1519 29.202C84.5427 29.446 83.8548 29.568 83.0884 29.568H79.5362ZM87.068 24.3549C87.068 23.7301 86.9796 23.159 86.8027 22.6416C86.6259 22.1145 86.3655 21.6605 86.0215 21.2798C85.6874 20.8991 85.2747 20.6062 84.7834 20.4012C84.2921 20.1864 83.7271 20.079 83.0884 20.079H80.568V28.6601H83.0884C83.7369 28.6601 84.3069 28.5528 84.7982 28.338C85.2993 28.1135 85.7169 27.8108 86.051 27.4301C86.3851 27.0396 86.6357 26.5856 86.8027 26.0682C86.9796 25.5411 87.068 24.97 87.068 24.3549Z" fill="black"/>
<path d="M90.0726 29.568V19.1711H91.1043V29.568H90.0726Z" fill="black"/>
<path d="M97.9441 29.6413C97.2169 29.6413 96.5487 29.4948 95.9395 29.202C95.3401 28.8993 94.8242 28.504 94.3919 28.0158C93.9595 27.518 93.6254 26.9517 93.3896 26.3172C93.1538 25.6826 93.0359 25.0334 93.0359 24.3696C93.0359 23.6765 93.1587 23.0126 93.4043 22.3781C93.6598 21.7435 94.0087 21.1822 94.4508 20.694C94.893 20.2059 95.4138 19.8203 96.0132 19.5372C96.6126 19.2443 97.2611 19.0979 97.9588 19.0979C98.6859 19.0979 99.3492 19.2541 99.9486 19.5665C100.558 19.8691 101.074 20.2694 101.496 20.7673C101.929 21.2651 102.263 21.8314 102.499 22.4659C102.734 23.0907 102.852 23.7301 102.852 24.3842C102.852 25.0774 102.725 25.7412 102.469 26.3758C102.223 27.0103 101.879 27.5716 101.437 28.0598C101.005 28.5381 100.489 28.9237 99.8897 29.2166C99.2903 29.4997 98.6417 29.6413 97.9441 29.6413ZM94.0676 24.3696C94.0676 24.9358 94.161 25.4825 94.3477 26.0097C94.5344 26.5271 94.7997 26.9908 95.1436 27.4008C95.4875 27.8011 95.8953 28.1232 96.367 28.3673C96.8386 28.6016 97.3643 28.7187 97.9441 28.7187C98.5336 28.7187 99.0692 28.5918 99.5507 28.338C100.032 28.0842 100.44 27.7522 100.774 27.3422C101.108 26.9322 101.364 26.4685 101.54 25.9511C101.727 25.4337 101.821 24.9065 101.821 24.3696C101.821 23.8034 101.722 23.2616 101.526 22.7441C101.339 22.217 101.074 21.7533 100.73 21.353C100.386 20.9528 99.9781 20.6355 99.5064 20.4012C99.0348 20.1571 98.514 20.0351 97.9441 20.0351C97.3545 20.0351 96.819 20.162 96.3375 20.4158C95.856 20.6599 95.4482 20.9869 95.1141 21.3969C94.78 21.807 94.5196 22.2707 94.3329 22.7881C94.1561 23.3055 94.0676 23.8327 94.0676 24.3696Z" fill="black"/>
<g opacity="0.6">
<path d="M187.932 18.9921V14.9607L186.129 18.0793H185.844L184.041 14.9607V18.9921H183.554V14.0825H184.055L185.983 17.4432L187.925 14.0825H188.419V18.9921H187.932Z" fill="black"/>
<path d="M191.662 18.5911C191.973 18.5911 192.23 18.5334 192.435 18.4182C192.643 18.2983 192.808 18.1439 192.929 17.9549C193.054 17.7613 193.14 17.5423 193.186 17.298C193.237 17.0536 193.263 16.807 193.263 16.558V14.0825H193.75V16.558C193.75 16.89 193.713 17.2058 193.639 17.5054C193.565 17.8004 193.444 18.0609 193.277 18.2868C193.114 18.5127 192.901 18.6925 192.637 18.8262C192.372 18.9599 192.05 19.0267 191.669 19.0267C191.279 19.0267 190.95 18.9576 190.681 18.8193C190.416 18.6763 190.203 18.4896 190.04 18.2591C189.878 18.0286 189.762 17.7659 189.692 17.4708C189.623 17.1758 189.588 16.8715 189.588 16.558V14.0825H190.068V16.558C190.068 16.8162 190.094 17.0675 190.145 17.3118C190.196 17.5561 190.282 17.7728 190.402 17.9618C190.528 18.1508 190.692 18.3029 190.896 18.4182C191.101 18.5334 191.356 18.5911 191.662 18.5911Z" fill="black"/>
<path d="M195.399 14.9814V18.9921H194.912V14.0825H195.288L198.559 18.1692V14.0894H199.046V18.9921H198.622L195.399 14.9814ZM197.431 13.2872C197.325 13.2872 197.232 13.2734 197.153 13.2458C197.079 13.2181 197.007 13.1881 196.937 13.1559C196.872 13.119 196.807 13.0867 196.742 13.059C196.682 13.0268 196.615 13.0106 196.54 13.0106C196.462 13.0106 196.399 13.0268 196.352 13.059C196.311 13.0913 196.276 13.1282 196.248 13.1697C196.225 13.2066 196.209 13.2434 196.199 13.2803C196.195 13.3126 196.192 13.3333 196.192 13.3426H195.9C195.9 13.3195 195.907 13.2734 195.921 13.2043C195.939 13.1305 195.972 13.0567 196.018 12.983C196.065 12.9092 196.13 12.8447 196.213 12.7894C196.297 12.7294 196.404 12.6995 196.533 12.6995C196.631 12.6995 196.714 12.7156 196.784 12.7479C196.858 12.7755 196.928 12.8078 196.993 12.8447C197.058 12.8816 197.123 12.9161 197.188 12.9484C197.257 12.9761 197.336 12.9899 197.424 12.9899C197.513 12.9899 197.582 12.9738 197.633 12.9415C197.689 12.9092 197.731 12.8723 197.758 12.8309C197.786 12.7894 197.803 12.7525 197.807 12.7202C197.816 12.6833 197.821 12.6603 197.821 12.6511H198.113C198.113 12.6741 198.104 12.7202 198.086 12.7894C198.067 12.8585 198.032 12.93 197.981 13.0037C197.935 13.0775 197.865 13.1443 197.772 13.2043C197.684 13.2596 197.571 13.2872 197.431 13.2872Z" fill="black"/>
<path d="M200.288 18.9921V14.0825H200.775V18.9921H200.288Z" fill="black"/>
<path d="M201.611 18.6118L204.973 14.5112H201.667V14.0825H205.537V14.4628L202.217 18.5634H205.53V18.9921H201.611V18.6118Z" fill="black"/>
<path d="M185.544 26.3485C185.201 26.3485 184.885 26.2793 184.598 26.141C184.315 25.9981 184.071 25.8114 183.867 25.5809C183.663 25.3458 183.505 25.0784 183.394 24.7788C183.282 24.4791 183.227 24.1726 183.227 23.8591C183.227 23.5318 183.285 23.2183 183.401 22.9186C183.521 22.619 183.686 22.3539 183.895 22.1234C184.104 21.8929 184.349 21.7108 184.633 21.5771C184.916 21.4388 185.222 21.3697 185.551 21.3697C185.895 21.3697 186.208 21.4434 186.491 21.591C186.779 21.7339 187.022 21.9229 187.222 22.158C187.426 22.3931 187.584 22.6605 187.695 22.9601C187.806 23.2552 187.862 23.5571 187.862 23.866C187.862 24.1933 187.802 24.5068 187.681 24.8064C187.565 25.1061 187.403 25.3712 187.194 25.6017C186.99 25.8276 186.746 26.0097 186.463 26.148C186.18 26.2816 185.874 26.3485 185.544 26.3485ZM183.714 23.8591C183.714 24.1265 183.758 24.3846 183.846 24.6336C183.934 24.8779 184.059 25.0969 184.222 25.2905C184.384 25.4795 184.577 25.6316 184.8 25.7469C185.022 25.8575 185.271 25.9128 185.544 25.9128C185.823 25.9128 186.076 25.8529 186.303 25.7331C186.53 25.6132 186.723 25.4564 186.881 25.2628C187.038 25.0692 187.159 24.8502 187.243 24.6059C187.331 24.3616 187.375 24.1126 187.375 23.8591C187.375 23.5917 187.328 23.3358 187.236 23.0915C187.148 22.8426 187.022 22.6236 186.86 22.4346C186.697 22.2456 186.505 22.0958 186.282 21.9851C186.059 21.8699 185.813 21.8122 185.544 21.8122C185.266 21.8122 185.013 21.8722 184.786 21.992C184.558 22.1073 184.366 22.2617 184.208 22.4553C184.05 22.649 183.927 22.8679 183.839 23.1123C183.756 23.3566 183.714 23.6055 183.714 23.8591Z" fill="black"/>
<path d="M188.781 26.3139V21.4043H189.268V25.8852H192.122V26.3139H188.781Z" fill="black"/>
<path d="M194.37 21.4043H194.78L196.834 26.3139H196.319L195.678 24.7788H193.458L192.825 26.3139H192.303L194.37 21.4043ZM195.567 24.3985L194.572 21.9713L193.562 24.3985H195.567Z" fill="black"/>
<path d="M196.992 21.4043L198.607 24.0458L200.236 21.4043H200.765L198.851 24.4883V26.3139H198.363V24.4745L196.456 21.4043H196.992Z" fill="black"/>
<path d="M202.458 21.4043H202.869L204.922 26.3139H204.407L203.767 24.7788H201.547L200.913 26.3139H200.391L202.458 21.4043ZM203.656 24.3985L202.66 21.9713L201.651 24.3985H203.656Z" fill="black"/>
<path d="M187.932 33.6357V29.6042L186.129 32.7229H185.844L184.041 29.6042V33.6357H183.554V28.726H184.055L185.983 32.0867L187.925 28.726H188.419V33.6357H187.932Z" fill="black"/>
<path d="M192.978 33.207V33.6357H189.658V28.726H192.915V29.1548H190.145V30.925H192.56V31.333H190.145V33.207H192.978Z" fill="black"/>
<path d="M193.899 33.6357V28.726H194.386V33.207H197.24V33.6357H193.899Z" fill="black"/>
<path d="M199.725 28.0553L199.411 27.9377L199.822 27.2946H200.323L199.725 28.0553ZM201.277 33.207V33.6357H197.957V28.726H201.214V29.1548H198.444V30.925H200.859V31.333H198.444V33.207H201.277Z" fill="black"/>
<path d="M202.685 29.625V33.6357H202.198V28.726H202.574L205.845 32.8128V28.7329H206.333V33.6357H205.908L202.685 29.625Z" fill="black"/>
<path d="M207.575 33.6357V28.726H209.252C209.647 28.726 209.99 28.7906 210.282 28.9197C210.579 29.0487 210.825 29.2239 211.02 29.4452C211.22 29.6665 211.368 29.9269 211.466 30.2266C211.568 30.5216 211.619 30.8374 211.619 31.1739C211.619 31.5474 211.563 31.8862 211.452 32.1905C211.34 32.4901 211.18 32.7483 210.971 32.9649C210.767 33.177 210.519 33.343 210.227 33.4628C209.939 33.5781 209.614 33.6357 209.252 33.6357H207.575ZM211.131 31.1739C211.131 30.8789 211.09 30.6092 211.006 30.3649C210.923 30.1159 210.8 29.9016 210.637 29.7218C210.479 29.542 210.285 29.4037 210.053 29.3069C209.821 29.2055 209.554 29.1548 209.252 29.1548H208.062V33.207H209.252C209.558 33.207 209.828 33.1563 210.06 33.0548C210.296 32.9488 210.493 32.8059 210.651 32.6261C210.809 32.4417 210.927 32.2273 211.006 31.983C211.09 31.7341 211.131 31.4644 211.131 31.1739Z" fill="black"/>
<path d="M215.87 33.207V33.6357H212.55V28.726H215.808V29.1548H213.037V30.925H215.453V31.333H213.037V33.207H215.87Z" fill="black"/>
<path d="M216.388 33.2554L219.75 29.1548H216.444V28.726H220.314V29.1064L216.993 33.207H220.307V33.6357H216.388V33.2554Z" fill="black"/>
<path d="M183.227 38.4681C183.227 38.173 183.278 37.8803 183.38 37.5899C183.486 37.2948 183.64 37.032 183.839 36.8015C184.039 36.571 184.285 36.3843 184.577 36.2414C184.869 36.0939 185.201 36.0202 185.572 36.0202C186.013 36.0202 186.389 36.1193 186.7 36.3175C187.015 36.5157 187.247 36.7739 187.396 37.092L187.013 37.3271C186.934 37.1657 186.837 37.0297 186.721 36.9191C186.609 36.8085 186.489 36.7186 186.359 36.6494C186.229 36.5803 186.094 36.5319 185.955 36.5042C185.816 36.4719 185.679 36.4558 185.544 36.4558C185.247 36.4558 184.985 36.5157 184.758 36.6356C184.53 36.7554 184.338 36.9122 184.18 37.1058C184.027 37.2994 183.911 37.5184 183.832 37.7627C183.753 38.0025 183.714 38.2468 183.714 38.4957C183.714 38.7677 183.76 39.0282 183.853 39.2771C183.95 39.5261 184.08 39.7473 184.243 39.941C184.41 40.13 184.605 40.2821 184.827 40.3974C185.055 40.508 185.301 40.5633 185.565 40.5633C185.704 40.5633 185.846 40.5472 185.99 40.5149C186.138 40.478 186.28 40.4227 186.414 40.3489C186.554 40.2706 186.681 40.1761 186.797 40.0654C186.913 39.9502 187.011 39.8119 187.09 39.6505L187.493 39.858C187.414 40.0424 187.303 40.206 187.159 40.3489C187.015 40.4873 186.855 40.6048 186.679 40.7016C186.503 40.7984 186.315 40.8722 186.115 40.9229C185.92 40.9736 185.728 40.999 185.537 40.999C185.199 40.999 184.888 40.9252 184.605 40.7777C184.322 40.6302 184.078 40.4388 183.874 40.2037C183.67 39.964 183.51 39.6943 183.394 39.3947C183.282 39.0904 183.227 38.7815 183.227 38.4681Z" fill="black"/>
<path d="M189.789 36.0478H190.199L192.252 40.9575H191.737L191.097 39.4223H188.877L188.243 40.9575H187.721L189.789 36.0478ZM190.986 39.042L189.99 36.6148L188.981 39.042H190.986Z" fill="black"/>
<path d="M195.775 36.9675C195.635 36.8108 195.45 36.684 195.218 36.5872C194.986 36.4904 194.721 36.442 194.424 36.442C193.988 36.442 193.67 36.525 193.471 36.6909C193.271 36.8523 193.172 37.0735 193.172 37.3548C193.172 37.5023 193.197 37.6244 193.248 37.7212C193.304 37.8134 193.387 37.8941 193.499 37.9633C193.61 38.0324 193.752 38.0924 193.923 38.1431C194.1 38.1938 194.306 38.2445 194.543 38.2952C194.807 38.3505 195.044 38.4127 195.253 38.4819C195.466 38.551 195.647 38.6386 195.796 38.7447C195.944 38.8461 196.058 38.9706 196.137 39.1181C196.215 39.2656 196.255 39.45 196.255 39.6713C196.255 39.8972 196.211 40.0931 196.123 40.2591C196.035 40.425 195.912 40.5633 195.754 40.674C195.596 40.7846 195.408 40.8676 195.19 40.9229C194.972 40.9736 194.733 40.999 194.473 40.999C193.707 40.999 193.046 40.7615 192.489 40.2867L192.733 39.8926C192.821 39.9848 192.926 40.0723 193.046 40.1553C193.172 40.2383 193.308 40.3121 193.457 40.3766C193.61 40.4365 193.772 40.4849 193.944 40.5218C194.116 40.5541 194.297 40.5702 194.487 40.5702C194.881 40.5702 195.188 40.5011 195.406 40.3628C195.628 40.2199 195.74 40.0055 195.74 39.7197C195.74 39.5676 195.707 39.4408 195.642 39.3394C195.582 39.2333 195.489 39.1434 195.364 39.0697C195.239 38.9913 195.083 38.9245 194.898 38.8691C194.712 38.8138 194.496 38.7585 194.25 38.7032C193.991 38.6432 193.763 38.581 193.568 38.5165C193.373 38.4519 193.209 38.3713 193.074 38.2744C192.94 38.1776 192.837 38.0624 192.768 37.9287C192.703 37.7904 192.67 37.6221 192.67 37.4239C192.67 37.198 192.712 36.9975 192.796 36.8223C192.884 36.6425 193.007 36.495 193.165 36.3797C193.322 36.2599 193.508 36.17 193.721 36.11C193.935 36.0455 194.171 36.0132 194.431 36.0132C194.761 36.0132 195.053 36.0639 195.308 36.1654C195.568 36.2622 195.802 36.4005 196.011 36.5803L195.775 36.9675Z" fill="black"/>
<path d="M200.588 36.4765H198.827V40.9575H198.34V36.4765H196.579V36.0478H200.588V36.4765Z" fill="black"/>
<path d="M201.328 40.9575V36.0478H203.416C203.63 36.0478 203.825 36.0939 204.001 36.1861C204.182 36.2737 204.337 36.3913 204.467 36.5388C204.597 36.6817 204.697 36.8453 204.767 37.0297C204.841 37.2141 204.878 37.4009 204.878 37.5899C204.878 37.7697 204.85 37.9425 204.794 38.1085C204.743 38.2698 204.669 38.4174 204.572 38.5511C204.479 38.6801 204.365 38.7908 204.231 38.883C204.096 38.9706 203.945 39.0305 203.778 39.0628L204.989 40.9575H204.439L203.277 39.1457H201.815V40.9575H201.328ZM201.815 38.717H203.43C203.574 38.717 203.704 38.687 203.82 38.6271C203.941 38.5626 204.043 38.4773 204.126 38.3713C204.21 38.2652 204.275 38.1454 204.321 38.0117C204.367 37.878 204.391 37.7374 204.391 37.5899C204.391 37.4423 204.363 37.3017 204.307 37.168C204.256 37.0297 204.184 36.9099 204.091 36.8085C204.003 36.707 203.897 36.6264 203.771 36.5664C203.651 36.5065 203.523 36.4765 203.388 36.4765H201.815V38.717Z" fill="black"/>
<path d="M207.866 40.992C207.523 40.992 207.207 40.9229 206.919 40.7846C206.636 40.6417 206.393 40.455 206.189 40.2245C205.984 39.9894 205.827 39.722 205.715 39.4223C205.604 39.1227 205.548 38.8161 205.548 38.5026C205.548 38.1753 205.606 37.8619 205.722 37.5622C205.843 37.2626 206.008 36.9975 206.217 36.767C206.425 36.5365 206.671 36.3544 206.954 36.2207C207.237 36.0824 207.544 36.0132 207.873 36.0132C208.216 36.0132 208.53 36.087 208.813 36.2345C209.1 36.3774 209.344 36.5664 209.544 36.8015C209.748 37.0367 209.905 37.304 210.017 37.6037C210.128 37.8987 210.184 38.2007 210.184 38.5096C210.184 38.8369 210.124 39.1503 210.003 39.45C209.887 39.7496 209.724 40.0147 209.516 40.2452C209.311 40.4711 209.068 40.6532 208.785 40.7915C208.502 40.9252 208.196 40.992 207.866 40.992ZM206.036 38.5026C206.036 38.77 206.08 39.0282 206.168 39.2771C206.256 39.5215 206.381 39.7404 206.544 39.934C206.706 40.1231 206.899 40.2752 207.121 40.3904C207.344 40.5011 207.592 40.5564 207.866 40.5564C208.144 40.5564 208.397 40.4965 208.625 40.3766C208.852 40.2568 209.045 40.1 209.202 39.9064C209.36 39.7128 209.481 39.4938 209.564 39.2495C209.653 39.0051 209.697 38.7562 209.697 38.5026C209.697 38.2353 209.65 37.9794 209.557 37.7351C209.469 37.4861 209.344 37.2672 209.182 37.0781C209.019 36.8891 208.827 36.7393 208.604 36.6287C208.381 36.5134 208.135 36.4558 207.866 36.4558C207.588 36.4558 207.335 36.5157 207.107 36.6356C206.88 36.7508 206.687 36.9053 206.53 37.0989C206.372 37.2925 206.249 37.5115 206.161 37.7558C206.077 38.0002 206.036 38.2491 206.036 38.5026Z" fill="black"/>
<path d="M185.544 48.3138C185.201 48.3138 184.885 48.2447 184.598 48.1064C184.315 47.9635 184.071 47.7768 183.867 47.5463C183.663 47.3111 183.505 47.0438 183.394 46.7441C183.282 46.4445 183.227 46.1379 183.227 45.8244C183.227 45.4971 183.285 45.1836 183.401 44.884C183.521 44.5843 183.686 44.3193 183.895 44.0888C184.104 43.8583 184.349 43.6762 184.633 43.5425C184.916 43.4042 185.222 43.335 185.551 43.335C185.895 43.335 186.208 43.4088 186.491 43.5563C186.779 43.6992 187.022 43.8882 187.222 44.1233C187.426 44.3584 187.584 44.6258 187.695 44.9255C187.806 45.2205 187.862 45.5225 187.862 45.8313C187.862 46.1586 187.802 46.4721 187.681 46.7718C187.565 47.0714 187.403 47.3365 187.194 47.567C186.99 47.7929 186.746 47.975 186.463 48.1133C186.18 48.247 185.874 48.3138 185.544 48.3138ZM183.714 45.8244C183.714 46.0918 183.758 46.35 183.846 46.5989C183.934 46.8432 184.059 47.0622 184.222 47.2558C184.384 47.4448 184.577 47.597 184.8 47.7122C185.022 47.8229 185.271 47.8782 185.544 47.8782C185.823 47.8782 186.076 47.8183 186.303 47.6984C186.53 47.5785 186.723 47.4218 186.881 47.2282C187.038 47.0345 187.159 46.8156 187.243 46.5712C187.331 46.3269 187.375 46.078 187.375 45.8244C187.375 45.557 187.328 45.3012 187.236 45.0569C187.148 44.8079 187.022 44.5889 186.86 44.3999C186.697 44.2109 186.505 44.0611 186.282 43.9505C186.059 43.8352 185.813 43.7776 185.544 43.7776C185.266 43.7776 185.013 43.8375 184.786 43.9574C184.558 44.0726 184.366 44.2271 184.208 44.4207C184.05 44.6143 183.927 44.8333 183.839 45.0776C183.756 45.3219 183.714 45.5709 183.714 45.8244Z" fill="black"/>
<path d="M189.268 44.2685V48.2793H188.781V43.3696H189.157L192.428 47.4564V43.3765H192.915V48.2793H192.491L189.268 44.2685Z" fill="black"/>
<path d="M196.148 48.3138C195.804 48.3138 195.489 48.2447 195.201 48.1064C194.918 47.9635 194.675 47.7768 194.47 47.5463C194.266 47.3111 194.108 47.0438 193.997 46.7441C193.886 46.4445 193.83 46.1379 193.83 45.8244C193.83 45.4971 193.888 45.1836 194.004 44.884C194.125 44.5843 194.289 44.3193 194.498 44.0888C194.707 43.8583 194.953 43.6762 195.236 43.5425C195.519 43.4042 195.825 43.335 196.155 43.335C196.498 43.335 196.811 43.4088 197.094 43.5563C197.382 43.6992 197.626 43.8882 197.825 44.1233C198.029 44.3584 198.187 44.6258 198.299 44.9255C198.41 45.2205 198.466 45.5225 198.466 45.8313C198.466 46.1586 198.405 46.4721 198.285 46.7718C198.169 47.0714 198.006 47.3365 197.797 47.567C197.593 47.7929 197.35 47.975 197.067 48.1133C196.784 48.247 196.477 48.3138 196.148 48.3138ZM194.317 45.8244C194.317 46.0918 194.361 46.35 194.45 46.5989C194.538 46.8432 194.663 47.0622 194.825 47.2558C194.988 47.4448 195.18 47.597 195.403 47.7122C195.626 47.8229 195.874 47.8782 196.148 47.8782C196.426 47.8782 196.679 47.8183 196.907 47.6984C197.134 47.5785 197.326 47.4218 197.484 47.2282C197.642 47.0345 197.763 46.8156 197.846 46.5712C197.934 46.3269 197.978 46.078 197.978 45.8244C197.978 45.557 197.932 45.3012 197.839 45.0569C197.751 44.8079 197.626 44.5889 197.463 44.3999C197.301 44.2109 197.108 44.0611 196.886 43.9505C196.663 43.8352 196.417 43.7776 196.148 43.7776C195.869 43.7776 195.617 43.8375 195.389 43.9574C195.162 44.0726 194.969 44.2271 194.811 44.4207C194.654 44.6143 194.531 44.8333 194.443 45.0776C194.359 45.3219 194.317 45.5709 194.317 45.8244Z" fill="black"/>
<path d="M186.909 55.601L186.338 55.0063C186.143 55.2138 185.918 55.3774 185.663 55.4973C185.412 55.6126 185.138 55.6702 184.841 55.6702C184.623 55.6702 184.417 55.6379 184.222 55.5734C184.032 55.5088 183.865 55.4189 183.721 55.3037C183.582 55.1838 183.47 55.0432 183.387 54.8819C183.303 54.7159 183.261 54.5338 183.261 54.3356C183.261 54.1696 183.289 54.0175 183.345 53.8792C183.401 53.7409 183.477 53.6141 183.575 53.4989C183.672 53.379 183.783 53.2684 183.909 53.1669C184.034 53.0655 184.166 52.9687 184.305 52.8765C184.18 52.7428 184.073 52.623 183.985 52.5169C183.902 52.4109 183.832 52.3141 183.776 52.2265C183.725 52.1343 183.688 52.0467 183.665 51.9637C183.642 51.8808 183.63 51.7955 183.63 51.7079C183.63 51.5558 183.66 51.4151 183.721 51.2861C183.786 51.1524 183.874 51.0371 183.985 50.9403C184.097 50.8435 184.227 50.7674 184.375 50.7121C184.528 50.6568 184.693 50.6291 184.869 50.6291C185.032 50.6291 185.182 50.6522 185.322 50.6983C185.461 50.7444 185.581 50.8112 185.684 50.8988C185.79 50.9818 185.874 51.0832 185.934 51.2031C185.994 51.3229 186.025 51.4543 186.025 51.5972C186.025 51.7402 185.994 51.8715 185.934 51.9914C185.878 52.1066 185.802 52.2173 185.704 52.3233C185.607 52.4293 185.493 52.5308 185.363 52.6276C185.233 52.7244 185.094 52.8212 184.946 52.918L186.331 54.3563C186.424 54.1812 186.496 53.9921 186.547 53.7893C186.602 53.5818 186.63 53.3652 186.63 53.1393H187.034C187.029 53.4251 186.99 53.6948 186.915 53.9483C186.846 54.2019 186.744 54.4347 186.609 54.6468L187.535 55.601H186.909ZM184.89 55.2899C185.127 55.2899 185.345 55.2415 185.544 55.1446C185.744 55.0432 185.92 54.9049 186.073 54.7297L184.577 53.16C184.331 53.3306 184.127 53.5104 183.964 53.6994C183.802 53.8838 183.721 54.1005 183.721 54.3494C183.721 54.5015 183.753 54.6375 183.818 54.7574C183.888 54.8727 183.978 54.9718 184.09 55.0547C184.201 55.1331 184.326 55.193 184.465 55.2345C184.605 55.2714 184.746 55.2899 184.89 55.2899ZM184.069 51.694C184.069 51.7494 184.076 51.8047 184.09 51.86C184.108 51.9153 184.141 51.9799 184.187 52.0536C184.233 52.1228 184.294 52.2058 184.368 52.3026C184.447 52.3948 184.549 52.5054 184.674 52.6345C184.943 52.4593 185.162 52.2957 185.329 52.1435C185.5 51.9868 185.586 51.8093 185.586 51.6111C185.586 51.4313 185.519 51.2838 185.384 51.1685C185.25 51.0533 185.078 50.9956 184.869 50.9956C184.753 50.9956 184.646 51.0141 184.549 51.051C184.452 51.0878 184.366 51.1385 184.291 51.2031C184.222 51.2676 184.166 51.3414 184.124 51.4244C184.087 51.5073 184.069 51.5972 184.069 51.694Z" fill="black"/>
<path d="M193.868 50.6914V55.601H193.388V53.3052H190.457V55.601H189.97V50.6914H190.457V52.8765H193.388V50.6914H193.868Z" fill="black"/>
<path d="M198.429 55.1723V55.601H195.109V50.6914H198.366V51.1201H195.596V52.8903H198.011V53.2983H195.596V55.1723H198.429Z" fill="black"/>
<path d="M199.35 55.601V50.6914H201.438C201.652 50.6914 201.847 50.7375 202.023 50.8297C202.204 50.9173 202.359 51.0348 202.489 51.1823C202.619 51.3252 202.719 51.4889 202.789 51.6733C202.863 51.8577 202.9 52.0444 202.9 52.2334C202.9 52.4132 202.872 52.5861 202.816 52.752C202.765 52.9134 202.691 53.0609 202.594 53.1946C202.501 53.3237 202.387 53.4343 202.253 53.5265C202.118 53.6141 201.967 53.674 201.8 53.7063L203.011 55.601H202.461L201.299 53.7893H199.837V55.601H199.35ZM199.837 53.3606H201.452C201.596 53.3606 201.726 53.3306 201.842 53.2707C201.963 53.2061 202.065 53.1208 202.148 53.0148C202.232 52.9088 202.297 52.7889 202.343 52.6552C202.39 52.5215 202.413 52.3809 202.413 52.2334C202.413 52.0859 202.385 51.9453 202.329 51.8116C202.278 51.6733 202.206 51.5534 202.113 51.452C202.025 51.3506 201.919 51.2699 201.793 51.21C201.673 51.1501 201.545 51.1201 201.41 51.1201H199.837V53.3606Z" fill="black"/>
<path d="M203.897 55.601V50.6914H205.986C206.199 50.6914 206.394 50.7375 206.57 50.8297C206.751 50.9173 206.907 51.0348 207.037 51.1823C207.166 51.3252 207.266 51.4889 207.336 51.6733C207.41 51.8577 207.447 52.0444 207.447 52.2334C207.447 52.4132 207.419 52.5861 207.364 52.752C207.313 52.9134 207.238 53.0609 207.141 53.1946C207.048 53.3237 206.934 53.4343 206.8 53.5265C206.665 53.6141 206.515 53.674 206.347 53.7063L207.559 55.601H207.009L205.846 53.7893H204.385V55.601H203.897ZM204.385 53.3606H205.999C206.143 53.3606 206.273 53.3306 206.389 53.2707C206.51 53.2061 206.612 53.1208 206.696 53.0148C206.779 52.9088 206.844 52.7889 206.89 52.6552C206.937 52.5215 206.96 52.3809 206.96 52.2334C206.96 52.0859 206.932 51.9453 206.876 51.8116C206.825 51.6733 206.754 51.5534 206.661 51.452C206.573 51.3506 206.466 51.2699 206.341 51.21C206.22 51.1501 206.092 51.1201 205.958 51.1201H204.385V53.3606Z" fill="black"/>
<path d="M211.765 55.1723V55.601H208.445V50.6914H211.702V51.1201H208.932V52.8903H211.347V53.2983H208.932V55.1723H211.765Z" fill="black"/>
<path d="M212.686 55.601V50.6914H214.774C214.988 50.6914 215.183 50.7375 215.359 50.8297C215.54 50.9173 215.695 51.0348 215.825 51.1823C215.955 51.3252 216.055 51.4889 216.125 51.6733C216.199 51.8577 216.236 52.0444 216.236 52.2334C216.236 52.4132 216.208 52.5861 216.152 52.752C216.101 52.9134 216.027 53.0609 215.93 53.1946C215.837 53.3237 215.723 53.4343 215.589 53.5265C215.454 53.6141 215.303 53.674 215.136 53.7063L216.347 55.601H215.797L214.635 53.7893H213.173V55.601H212.686ZM213.173 53.3606H214.788C214.932 53.3606 215.062 53.3306 215.178 53.2707C215.299 53.2061 215.401 53.1208 215.484 53.0148C215.568 52.9088 215.633 52.7889 215.679 52.6552C215.725 52.5215 215.749 52.3809 215.749 52.2334C215.749 52.0859 215.721 51.9453 215.665 51.8116C215.614 51.6733 215.542 51.5534 215.449 51.452C215.361 51.3506 215.255 51.2699 215.129 51.21C215.009 51.1501 214.881 51.1201 214.746 51.1201H213.173V53.3606Z" fill="black"/>
<path d="M218.69 50.6914H219.101L221.154 55.601H220.639L219.998 54.0659H217.778L217.145 55.601H216.623L218.69 50.6914ZM219.887 53.6856L218.892 51.2584L217.883 53.6856H219.887Z" fill="black"/>
</g>
<path d="M184.857 58.0131H185.706L187.585 62.9227H186.597L186.138 61.6988H184.411L183.959 62.9227H182.971L184.857 58.0131ZM185.964 61.028L185.282 59.0987L184.572 61.028H185.964Z" fill="black"/>
<path d="M190.111 62.9919C189.833 62.9919 189.584 62.9296 189.366 62.8052C189.148 62.6807 188.977 62.5101 188.851 62.2935V62.9227H188.037V57.8748H188.97V59.9354C189.099 59.7142 189.269 59.5436 189.478 59.4237C189.691 59.2993 189.939 59.237 190.222 59.237C190.459 59.237 190.675 59.2877 190.87 59.3891C191.065 59.4906 191.232 59.6266 191.371 59.7971C191.515 59.9677 191.624 60.1682 191.698 60.3987C191.777 60.6292 191.816 60.8713 191.816 61.1248C191.816 61.3876 191.772 61.6319 191.684 61.8578C191.601 62.0837 191.482 62.2819 191.329 62.4525C191.176 62.6185 190.995 62.7498 190.786 62.8467C190.577 62.9435 190.352 62.9919 190.111 62.9919ZM189.854 62.2036C190.002 62.2036 190.139 62.1759 190.264 62.1206C190.389 62.0606 190.496 61.9823 190.584 61.8855C190.673 61.7887 190.74 61.6757 190.786 61.5466C190.837 61.4175 190.863 61.2792 190.863 61.1317C190.863 60.9842 190.84 60.8436 190.793 60.7099C190.747 60.5762 190.679 60.4587 190.591 60.3572C190.508 60.2558 190.408 60.1752 190.292 60.1152C190.176 60.0553 190.048 60.0253 189.909 60.0253C189.7 60.0253 189.512 60.0945 189.345 60.2328C189.183 60.3665 189.058 60.5324 188.97 60.7307V61.595C189.002 61.6872 189.048 61.7702 189.109 61.844C189.174 61.9177 189.246 61.9823 189.325 62.0376C189.403 62.0883 189.489 62.1298 189.582 62.1621C189.675 62.1897 189.765 62.2036 189.854 62.2036Z" fill="black"/>
<path d="M194.133 62.9919C193.836 62.9919 193.569 62.9412 193.332 62.8397C193.096 62.7383 192.894 62.6023 192.727 62.4318C192.564 62.2566 192.439 62.056 192.351 61.8302C192.263 61.6043 192.219 61.3668 192.219 61.1179C192.219 60.8644 192.263 60.6246 192.351 60.3987C192.439 60.1728 192.564 59.9746 192.727 59.804C192.894 59.6289 193.096 59.4906 193.332 59.3891C193.569 59.2877 193.836 59.237 194.133 59.237C194.43 59.237 194.694 59.2877 194.926 59.3891C195.163 59.4906 195.362 59.6289 195.525 59.804C195.692 59.9746 195.819 60.1728 195.907 60.3987C195.996 60.6246 196.04 60.8644 196.04 61.1179C196.04 61.3668 195.996 61.6043 195.907 61.8302C195.819 62.056 195.694 62.2566 195.532 62.4318C195.369 62.6023 195.17 62.7383 194.933 62.8397C194.696 62.9412 194.43 62.9919 194.133 62.9919ZM193.179 61.1179C193.179 61.2793 193.202 61.4268 193.249 61.5605C193.3 61.6895 193.367 61.8025 193.451 61.8993C193.539 61.9961 193.641 62.0722 193.757 62.1275C193.873 62.1782 193.998 62.2036 194.133 62.2036C194.267 62.2036 194.392 62.1782 194.508 62.1275C194.624 62.0722 194.724 61.9961 194.808 61.8993C194.896 61.8025 194.963 61.6872 195.01 61.5535C195.061 61.4199 195.086 61.2723 195.086 61.111C195.086 60.9542 195.061 60.809 195.01 60.6753C194.963 60.5416 194.896 60.4264 194.808 60.3296C194.724 60.2328 194.624 60.159 194.508 60.1083C194.392 60.053 194.267 60.0253 194.133 60.0253C193.998 60.0253 193.873 60.053 193.757 60.1083C193.641 60.1636 193.539 60.2397 193.451 60.3365C193.367 60.4333 193.3 60.5486 193.249 60.6823C193.202 60.8159 193.179 60.9612 193.179 61.1179Z" fill="black"/>
<path d="M198.096 62.9435C197.85 62.9435 197.627 62.8951 197.428 62.7982C197.228 62.7014 197.054 62.5701 196.906 62.4041C196.762 62.2335 196.651 62.0376 196.572 61.8163C196.493 61.595 196.453 61.3599 196.453 61.111C196.453 60.8482 196.495 60.6039 196.579 60.378C196.662 60.1521 196.778 59.9539 196.927 59.7833C197.075 59.6127 197.254 59.479 197.463 59.3822C197.672 59.2854 197.901 59.237 198.152 59.237C198.435 59.237 198.683 59.3016 198.897 59.4306C199.11 59.5551 199.286 59.7234 199.426 59.9354V59.2993H200.24V62.7498C200.24 63.0172 200.189 63.2569 200.087 63.469C199.985 63.6811 199.843 63.8609 199.662 64.0084C199.486 64.1559 199.272 64.2688 199.022 64.3472C198.776 64.4256 198.507 64.4648 198.214 64.4648C197.815 64.4648 197.479 64.3979 197.205 64.2642C196.936 64.1352 196.704 63.9508 196.509 63.711L197.017 63.2201C197.156 63.3906 197.33 63.5243 197.539 63.6211C197.753 63.7179 197.978 63.7664 198.214 63.7664C198.358 63.7664 198.495 63.7456 198.625 63.7041C198.76 63.6672 198.878 63.6073 198.98 63.5243C199.082 63.4413 199.161 63.3353 199.217 63.2062C199.277 63.0772 199.307 62.925 199.307 62.7498V62.2935C199.187 62.5009 199.017 62.6623 198.799 62.7775C198.581 62.8881 198.347 62.9435 198.096 62.9435ZM198.409 62.2036C198.511 62.2036 198.609 62.1874 198.702 62.1552C198.794 62.1229 198.88 62.0791 198.959 62.0238C199.038 61.9684 199.108 61.9039 199.168 61.8302C199.228 61.7564 199.275 61.678 199.307 61.595V60.7307C199.224 60.5186 199.091 60.348 198.91 60.2189C198.734 60.0899 198.549 60.0253 198.354 60.0253C198.21 60.0253 198.08 60.0576 197.964 60.1221C197.848 60.1821 197.748 60.265 197.665 60.3711C197.581 60.4725 197.516 60.5901 197.47 60.7237C197.428 60.8574 197.407 60.9957 197.407 61.1386C197.407 61.2862 197.433 61.4245 197.484 61.5535C197.535 61.6826 197.604 61.7956 197.692 61.8924C197.785 61.9892 197.892 62.0653 198.013 62.1206C198.133 62.1759 198.265 62.2036 198.409 62.2036Z" fill="black"/>
<path d="M202.076 62.9919C201.9 62.9919 201.735 62.9642 201.582 62.9089C201.429 62.849 201.296 62.7683 201.185 62.6669C201.074 62.5608 200.985 62.4387 200.92 62.3004C200.86 62.1621 200.83 62.0099 200.83 61.844C200.83 61.6734 200.867 61.5167 200.941 61.3738C201.02 61.2262 201.127 61.1018 201.262 61.0003C201.401 60.8989 201.565 60.8206 201.756 60.7652C201.946 60.7053 202.155 60.6753 202.382 60.6753C202.545 60.6753 202.702 60.6892 202.855 60.7168C203.013 60.7445 203.152 60.7837 203.273 60.8344V60.6269C203.273 60.3872 203.203 60.2028 203.064 60.0737C202.93 59.9447 202.728 59.8801 202.459 59.8801C202.264 59.8801 202.074 59.9147 201.888 59.9838C201.702 60.053 201.512 60.1544 201.317 60.2881L201.032 59.7003C201.501 59.3915 202.006 59.237 202.549 59.237C203.074 59.237 203.48 59.3661 203.767 59.6243C204.06 59.8778 204.206 60.2466 204.206 60.7307V61.8578C204.206 61.9546 204.222 62.0238 204.254 62.0653C204.292 62.1068 204.35 62.1298 204.428 62.1344V62.9227C204.271 62.955 204.134 62.9711 204.018 62.9711C203.841 62.9711 203.705 62.9319 203.607 62.8536C203.514 62.7752 203.456 62.6715 203.433 62.5424L203.412 62.3419C203.25 62.5539 203.053 62.7153 202.821 62.8259C202.589 62.9366 202.34 62.9919 202.076 62.9919ZM202.34 62.3142C202.498 62.3142 202.647 62.2865 202.786 62.2312C202.93 62.1759 203.041 62.1021 203.12 62.0099C203.222 61.9316 203.273 61.844 203.273 61.7472V61.3323C203.162 61.2908 203.041 61.2585 202.911 61.2355C202.781 61.2078 202.656 61.194 202.535 61.194C202.294 61.194 202.097 61.2493 201.944 61.3599C201.791 61.466 201.714 61.602 201.714 61.7679C201.714 61.9247 201.774 62.056 201.895 62.1621C202.016 62.2635 202.164 62.3142 202.34 62.3142Z" fill="black"/>
<path d="M206.588 62.9919C206.337 62.9919 206.105 62.9435 205.892 62.8467C205.678 62.7498 205.495 62.6162 205.342 62.4456C205.189 62.275 205.068 62.0768 204.98 61.8509C204.896 61.6204 204.855 61.3738 204.855 61.111C204.855 60.8482 204.894 60.6039 204.973 60.378C205.056 60.1521 205.17 59.9539 205.314 59.7833C205.458 59.6127 205.629 59.479 205.829 59.3822C206.029 59.2854 206.247 59.237 206.483 59.237C206.752 59.237 206.994 59.3016 207.207 59.4306C207.425 59.5597 207.595 59.728 207.715 59.9354V57.8748H208.648V61.8578C208.648 61.9546 208.664 62.0238 208.697 62.0653C208.729 62.1068 208.785 62.1298 208.864 62.1344V62.9227C208.701 62.955 208.569 62.9711 208.467 62.9711C208.3 62.9711 208.163 62.9296 208.056 62.8467C207.95 62.7637 207.889 62.6553 207.875 62.5217L207.854 62.2935C207.72 62.524 207.537 62.6991 207.305 62.819C207.077 62.9342 206.838 62.9919 206.588 62.9919ZM206.831 62.2036C206.919 62.2036 207.01 62.1897 207.103 62.1621C207.196 62.1298 207.281 62.086 207.36 62.0307C207.439 61.9754 207.509 61.9108 207.569 61.8371C207.634 61.7633 207.683 61.6826 207.715 61.595V60.7307C207.678 60.6292 207.625 60.537 207.555 60.4541C207.49 60.3665 207.414 60.2927 207.325 60.2328C207.242 60.1682 207.151 60.1175 207.054 60.0807C206.961 60.0438 206.868 60.0253 206.776 60.0253C206.636 60.0253 206.506 60.0553 206.386 60.1152C206.27 60.1752 206.17 60.2581 206.087 60.3642C206.003 60.4656 205.938 60.5831 205.892 60.7168C205.845 60.8505 205.822 60.9888 205.822 61.1317C205.822 61.2839 205.848 61.4245 205.899 61.5535C205.95 61.6826 206.019 61.7956 206.107 61.8924C206.196 61.9892 206.3 62.0653 206.421 62.1206C206.546 62.1759 206.683 62.2036 206.831 62.2036Z" fill="black"/>
<path d="M211.248 62.9919C210.951 62.9919 210.684 62.9412 210.447 62.8397C210.211 62.7383 210.009 62.6023 209.842 62.4318C209.679 62.2566 209.554 62.056 209.466 61.8302C209.378 61.6043 209.334 61.3668 209.334 61.1179C209.334 60.8644 209.378 60.6246 209.466 60.3987C209.554 60.1728 209.679 59.9746 209.842 59.804C210.009 59.6289 210.211 59.4906 210.447 59.3891C210.684 59.2877 210.951 59.237 211.248 59.237C211.545 59.237 211.809 59.2877 212.041 59.3891C212.278 59.4906 212.477 59.6289 212.64 59.804C212.807 59.9746 212.934 60.1728 213.023 60.3987C213.111 60.6246 213.155 60.8644 213.155 61.1179C213.155 61.3668 213.111 61.6043 213.023 61.8302C212.934 62.056 212.809 62.2566 212.647 62.4318C212.484 62.6023 212.285 62.7383 212.048 62.8397C211.812 62.9412 211.545 62.9919 211.248 62.9919ZM210.294 61.1179C210.294 61.2793 210.317 61.4268 210.364 61.5605C210.415 61.6895 210.482 61.8025 210.566 61.8993C210.654 61.9961 210.756 62.0722 210.872 62.1275C210.988 62.1782 211.113 62.2036 211.248 62.2036C211.382 62.2036 211.508 62.1782 211.624 62.1275C211.74 62.0722 211.839 61.9961 211.923 61.8993C212.011 61.8025 212.078 61.6872 212.125 61.5535C212.176 61.4199 212.201 61.2723 212.201 61.111C212.201 60.9542 212.176 60.809 212.125 60.6753C212.078 60.5416 212.011 60.4264 211.923 60.3296C211.839 60.2328 211.74 60.159 211.624 60.1083C211.508 60.053 211.382 60.0253 211.248 60.0253C211.113 60.0253 210.988 60.053 210.872 60.1083C210.756 60.1636 210.654 60.2397 210.566 60.3365C210.482 60.4333 210.415 60.5486 210.364 60.6823C210.317 60.8159 210.294 60.9612 210.294 61.1179Z" fill="black"/>
<path d="M215.163 62.9919C214.856 62.9919 214.557 62.9435 214.265 62.8467C213.972 62.7498 213.722 62.6115 213.513 62.4318L213.861 61.8509C214.084 62.0076 214.299 62.1275 214.508 62.2105C214.722 62.2888 214.933 62.328 215.142 62.328C215.327 62.328 215.473 62.2935 215.58 62.2243C215.687 62.1552 215.74 62.056 215.74 61.927C215.74 61.7979 215.678 61.7034 215.552 61.6434C215.427 61.5835 215.223 61.5144 214.94 61.436C214.703 61.3715 214.501 61.3092 214.334 61.2493C214.167 61.1894 214.033 61.1225 213.931 61.0487C213.828 60.9704 213.754 60.8828 213.708 60.786C213.661 60.6846 213.638 60.5647 213.638 60.4264C213.638 60.242 213.673 60.076 213.743 59.9285C213.817 59.781 213.919 59.6565 214.049 59.5551C214.179 59.4491 214.33 59.3684 214.501 59.3131C214.678 59.2578 214.868 59.2301 215.072 59.2301C215.346 59.2301 215.601 59.2693 215.838 59.3477C216.079 59.426 216.299 59.5528 216.499 59.728L216.123 60.2881C215.937 60.1498 215.756 60.0484 215.58 59.9838C215.408 59.9193 215.237 59.887 215.065 59.887C214.907 59.887 214.775 59.9193 214.668 59.9838C214.562 60.0484 214.508 60.1521 214.508 60.295C214.508 60.3596 214.52 60.4126 214.543 60.4541C214.571 60.4956 214.613 60.5324 214.668 60.5647C214.724 60.597 214.796 60.6292 214.884 60.6615C214.977 60.6892 215.091 60.7191 215.225 60.7514C215.476 60.8159 215.689 60.8805 215.866 60.945C216.046 61.0096 216.193 61.0833 216.304 61.1663C216.42 61.2493 216.504 61.3461 216.555 61.4567C216.61 61.5628 216.638 61.6918 216.638 61.844C216.638 62.1989 216.506 62.4802 216.241 62.6876C215.977 62.8905 215.617 62.9919 215.163 62.9919Z" fill="black"/>
<path fill-rule="evenodd" clip-rule="evenodd" d="M170.653 64.5499L170.653 11.6704L170.243 11.6704L170.243 64.5499L170.653 64.5499Z" stroke="url(#paint0_linear)" stroke-width="0.5"/>
<rect width="26.9442" height="75" fill="black" fill-opacity="0"/>
<path fill-rule="evenodd" clip-rule="evenodd" d="M23.6689 10.6724L15.9062 2.18896L18.3299 0L26.9443 9.41429V65.5857L18.3299 75L15.9062 72.811L23.6689 64.3276V10.6724Z" fill="url(#paint1_linear)"/>
<path fill-rule="evenodd" clip-rule="evenodd" d="M16.2994 14.8394L10.0439 7.58301L11.9097 5.99542L18.7559 13.9371V61.4697L11.9097 69.4114L10.0439 67.8238L16.2994 60.5674V14.8394Z" fill="url(#paint2_linear)"/>
<path fill-rule="evenodd" clip-rule="evenodd" d="M9.33756 17.7242L4.58496 11.3406L5.90163 10.373L10.9753 17.1878V58.2189L5.90163 65.0337L4.58496 64.0661L9.33756 57.6826V17.7242Z" fill="url(#paint3_linear)"/>
<path fill-rule="evenodd" clip-rule="evenodd" d="M4.01609 20.656L0 15.1637L0.662492 14.6855L4.83494 20.3917V55.0152L0.662492 60.7214L0 60.2433L4.01609 54.7509V20.656Z" fill="url(#paint4_linear)"/>
<path d="M78.0032 55.6011V42.2185L72.7585 52.1843H70.609L65.3642 42.2185V55.6011H61.4092V35.3849H65.6508L71.6694 46.8882L77.7453 35.3849H81.9583V55.6011H78.0032Z" fill="black"/>
<path d="M94.5181 52.2697C95.4543 52.2697 96.2376 52.0799 96.8682 51.7002C97.5178 51.3206 98.0337 50.8271 98.4158 50.2196C98.817 49.6122 99.0941 48.9193 99.2469 48.141C99.4189 47.3438 99.5049 46.5275 99.5049 45.6923V35.3849H103.431V45.6923C103.431 47.078 103.259 48.3783 102.915 49.5932C102.591 50.8081 102.065 51.8711 101.339 52.7822C100.632 53.6934 99.715 54.4147 98.5878 54.9462C97.4605 55.4777 96.1135 55.7435 94.5467 55.7435C92.9227 55.7435 91.5374 55.4683 90.391 54.9178C89.2637 54.3483 88.3466 53.608 87.6397 52.6968C86.9327 51.7667 86.4169 50.6942 86.0921 49.4793C85.7863 48.2644 85.6335 47.0021 85.6335 45.6923V35.3849H89.5886V45.6923C89.5886 46.5465 89.665 47.3723 89.8178 48.1695C89.9898 48.9478 90.2668 49.6407 90.649 50.2481C91.0502 50.8555 91.5661 51.3491 92.1966 51.7287C92.8271 52.0894 93.6009 52.2697 94.5181 52.2697Z" fill="black"/>
<path d="M111.083 42.6456V55.6011H107.128V35.3849H110.195L120.799 48.6536V35.4134H124.754V55.6011H121.544L111.083 42.6456ZM117.733 33.1924C117.293 33.1924 116.911 33.126 116.586 32.9931C116.261 32.8602 115.956 32.7179 115.669 32.566C115.402 32.3951 115.125 32.2433 114.838 32.1104C114.57 31.9775 114.284 31.9111 113.978 31.9111C113.653 31.9111 113.395 31.9775 113.204 32.1104C113.032 32.2433 112.899 32.3951 112.803 32.566C112.708 32.7368 112.65 32.8982 112.631 33.05C112.612 33.1829 112.602 33.2588 112.602 33.2778H110.482C110.482 33.107 110.539 32.8223 110.654 32.4236C110.768 32.006 110.95 31.5979 111.198 31.1993C111.466 30.7816 111.81 30.421 112.23 30.1173C112.669 29.7946 113.204 29.6332 113.835 29.6332C114.274 29.6332 114.647 29.7091 114.953 29.861C115.277 29.9939 115.574 30.1457 115.841 30.3166C116.128 30.4684 116.405 30.6203 116.672 30.7722C116.959 30.905 117.274 30.9715 117.618 30.9715C117.962 30.9715 118.229 30.905 118.42 30.7722C118.631 30.6393 118.783 30.4874 118.879 30.3166C118.994 30.1457 119.06 29.9844 119.08 29.8325C119.118 29.6807 119.137 29.5858 119.137 29.5478H121.258C121.258 29.6807 121.2 29.9464 121.086 30.3451C120.971 30.7437 120.771 31.1518 120.484 31.5694C120.216 31.987 119.853 32.3667 119.395 32.7084C118.955 33.0311 118.401 33.1924 117.733 33.1924Z" fill="black"/>
<path d="M128.701 55.6011V35.3849H132.656V55.6011H128.701Z" fill="black"/>
<path d="M135.353 52.6399L146.846 38.8302H135.669V35.3849H151.403V38.3461L140.283 52.1558H151.489V55.6011H135.353V52.6399Z" fill="black"/>
<defs>
<linearGradient id="paint0_linear" x1="170.197" y1="51.8182" x2="170.197" y2="27.2728" gradientUnits="userSpaceOnUse">
<stop stop-color="#29762A"/>
<stop offset="1" stop-color="#95CF20"/>
</linearGradient>
<linearGradient id="paint1_linear" x1="21.4253" y1="0" x2="21.4253" y2="75" gradientUnits="userSpaceOnUse">
<stop stop-color="#26732A"/>
<stop offset="1" stop-color="#99D21F"/>
</linearGradient>
<linearGradient id="paint2_linear" x1="14.3999" y1="5.99542" x2="14.3999" y2="69.4114" gradientUnits="userSpaceOnUse">
<stop stop-color="#26732A"/>
<stop offset="1" stop-color="#99D21F"/>
</linearGradient>
<linearGradient id="paint3_linear" x1="7.78011" y1="10.373" x2="7.78011" y2="65.0337" gradientUnits="userSpaceOnUse">
<stop stop-color="#26732A"/>
<stop offset="1" stop-color="#99D21F"/>
</linearGradient>
<linearGradient id="paint4_linear" x1="2.41747" y1="14.6855" x2="2.41747" y2="60.7214" gradientUnits="userSpaceOnUse">
<stop stop-color="#26732A"/>
<stop offset="1" stop-color="#99D21F"/>
</linearGradient>
</defs>
</svg>
