<?xml version="1.0" encoding="iso-8859-1"?>
<!-- Generator: Adobe Illustrator 18.1.1, SVG Export Plug-In . SVG Version: 6.00 Build 0)  -->
<svg version="1.1" id="Capa_1" xmlns="http://www.w3.org/2000/svg" xmlns:xlink="http://www.w3.org/1999/xlink" x="0px" y="0px"
	 viewBox="0 0 278.702 278.702" style="enable-background:new 0 0 278.702 278.702;" xml:space="preserve">
<g>
	<path id="rect29556" d="M273.764,0.001c-0.762-0.01-1.516,0.154-2.205,0.48L2.86,127.761c-2.496,1.183-3.56,4.165-2.377,6.66
		c0.742,1.566,2.242,2.636,3.965,2.828L127.75,150.95l13.701,123.303c0.305,2.745,2.777,4.723,5.522,4.418
		c1.723-0.191,3.223-1.261,3.966-2.828L278.219,7.141c1.182-2.496,0.117-5.478-2.379-6.66C275.191,0.174,274.483,0.01,273.764,0.001
		z M263.19,15.511L149.446,255.638L137.248,145.87c-0.258-2.325-2.093-4.16-4.418-4.418L23.063,129.255L263.19,15.511z
		 M219.356,44.858c-0.394-0.006-0.783,0.081-1.137,0.254L80.991,110.118c-1.265,0.553-1.843,2.027-1.289,3.292
		c0.553,1.265,2.027,1.843,3.292,1.289c0.046-0.02,0.091-0.042,0.136-0.064l137.23-65.004c1.256-0.575,1.808-2.058,1.233-3.314
		C221.191,45.44,220.321,44.872,219.356,44.858z"/>
</g>
<g>
</g>
<g>
</g>
<g>
</g>
<g>
</g>
<g>
</g>
<g>
</g>
<g>
</g>
<g>
</g>
<g>
</g>
<g>
</g>
<g>
</g>
<g>
</g>
<g>
</g>
<g>
</g>
<g>
</g>
</svg>
